<svg width="17" height="16" viewBox="0 0 17 16" fill="none" xmlns="http://www.w3.org/2000/svg">
<path fill-rule="evenodd" clip-rule="evenodd" d="M5.75925 12.5467L1.13443 14.9133C0.765179 15.0926 0.310265 14.9657 0.106698 14.6267V14.6267C0.0478031 14.5216 0.0160291 14.4052 0.013916 14.2867V3.8C0.013916 1.8 1.47701 1 3.58244 1H8.52843C10.5696 1 12.097 1.74667 12.097 3.66667V14.2867C12.097 14.4759 12.0165 14.6573 11.8733 14.7911C11.7301 14.9248 11.5358 15 11.3333 15C11.2041 14.9981 11.0771 14.9684 10.9622 14.9133L6.3088 12.5467C6.13733 12.4601 5.93072 12.4601 5.75925 12.5467Z" fill="#00843D"/>
</svg>
