<svg width="70" height="64" viewBox="0 0 70 64" fill="none" xmlns="http://www.w3.org/2000/svg">
<g clip-path="url(#clip0_940_3892)">
<path d="M69.3859 24.1578C69.3608 24.1578 69.3363 24.1501 69.3158 24.1356L35.3524 0.357053C35.249 0.285027 35.1262 0.246535 35.0005 0.246751C34.8747 0.246967 34.752 0.285879 34.6489 0.358259L0.930181 24.1354C0.903511 24.1542 0.870503 24.1616 0.838417 24.1559C0.80633 24.1503 0.777794 24.132 0.759088 24.1052C0.740381 24.0784 0.733035 24.0452 0.738666 24.013C0.744297 23.9807 0.762444 23.952 0.789115 23.9332L34.5079 0.156071C34.6522 0.0547545 34.824 0.000292057 35.0001 1.17132e-06C35.1761 -0.000289714 35.3481 0.0536045 35.4928 0.154443L69.4561 23.933C69.4776 23.948 69.4937 23.9695 69.5022 23.9944C69.5106 24.0193 69.5109 24.0462 69.5031 24.0713C69.4953 24.0964 69.4797 24.1183 69.4586 24.1338C69.4375 24.1494 69.412 24.1578 69.3859 24.1578Z" fill="#3F3D56"/>
<path d="M2.94739 24.8768L35.0339 1.02686L65.886 25.4941L35.6755 38.272L21.9211 32.7781L2.94739 24.8768Z" fill="#E6E6E6"/>
<path d="M21.3998 56.3638H5.50362C5.40602 56.3639 5.30934 56.3447 5.21913 56.3073C5.12891 56.2698 5.04693 56.2148 4.97787 56.1455C4.9088 56.0761 4.85402 55.9938 4.81663 55.9031C4.77925 55.8125 4.76001 55.7153 4.76001 55.6172C4.76001 55.5191 4.77925 55.4219 4.81663 55.3313C4.85402 55.2406 4.9088 55.1583 4.97787 55.0889C5.04693 55.0196 5.12891 54.9646 5.21913 54.9272C5.30934 54.8897 5.40602 54.8705 5.50362 54.8706H21.3998C21.4974 54.8705 21.5941 54.8897 21.6843 54.9272C21.7745 54.9646 21.8565 55.0196 21.9256 55.0889C21.9946 55.1583 22.0494 55.2406 22.0868 55.3313C22.1242 55.4219 22.1434 55.5191 22.1434 55.6172C22.1434 55.7153 22.1242 55.8125 22.0868 55.9031C22.0494 55.9938 21.9946 56.0761 21.9256 56.1455C21.8565 56.2148 21.7745 56.2698 21.6843 56.3073C21.5941 56.3447 21.4974 56.3639 21.3998 56.3638Z" fill="#00843D"/>
<path d="M11.2068 53.1538H5.50362C5.40602 53.154 5.30934 53.1348 5.21913 53.0973C5.12891 53.0598 5.04693 53.0048 4.97787 52.9355C4.9088 52.8662 4.85402 52.7838 4.81663 52.6932C4.77925 52.6025 4.76001 52.5054 4.76001 52.4072C4.76001 52.3091 4.77925 52.212 4.81663 52.1213C4.85402 52.0307 4.9088 51.9483 4.97787 51.879C5.04693 51.8096 5.12891 51.7547 5.21913 51.7172C5.30934 51.6797 5.40602 51.6605 5.50362 51.6606H11.2068C11.3044 51.6605 11.4011 51.6797 11.4913 51.7172C11.5815 51.7547 11.6635 51.8096 11.7326 51.879C11.8016 51.9483 11.8564 52.0307 11.8938 52.1213C11.9312 52.212 11.9504 52.3091 11.9504 52.4072C11.9504 52.5054 11.9312 52.6025 11.8938 52.6932C11.8564 52.7838 11.8016 52.8662 11.7326 52.9355C11.6635 53.0048 11.5815 53.0598 11.4913 53.0973C11.4011 53.1348 11.3044 53.154 11.2068 53.1538Z" fill="#00843D"/>
<path d="M35.5477 38.3536C35.4269 38.3537 35.3072 38.3302 35.1954 38.2842L15.3509 30.0064V4.09566C15.3512 3.86654 15.4418 3.64688 15.603 3.48486C15.7641 3.32285 15.9826 3.23171 16.2105 3.23145H54.2807C54.5086 3.23171 54.7271 3.32285 54.8883 3.48486C55.0494 3.64688 55.1401 3.86654 55.1404 4.09566V30.0245L55.1031 30.0406L35.9108 38.2802C35.7958 38.3287 35.6724 38.3537 35.5477 38.3536Z" fill="white"/>
<path d="M35.4863 38.4155C35.3575 38.4156 35.2299 38.3905 35.1106 38.3416L15.2281 30.0479V4.09586C15.2284 3.85037 15.3255 3.61502 15.4982 3.44143C15.6708 3.26784 15.9049 3.1702 16.1491 3.16992H54.2193C54.4635 3.1702 54.6976 3.26784 54.8703 3.44143C55.043 3.61502 55.1401 3.85037 55.1404 4.09586V30.0655L35.8735 38.3371C35.7509 38.3889 35.6193 38.4156 35.4863 38.4155ZM15.4737 29.8829L35.2043 38.1133C35.3883 38.1883 35.5944 38.1871 35.7775 38.1098L54.8948 29.9025V4.09586C54.8946 3.91584 54.8233 3.74325 54.6967 3.61596C54.5701 3.48866 54.3984 3.41705 54.2193 3.41684H16.1491C15.9701 3.41705 15.7984 3.48866 15.6718 3.61596C15.5451 3.74325 15.4739 3.91584 15.4737 4.09586L15.4737 29.8829Z" fill="#3F3D56"/>
<path d="M69.1404 23.9106H69.1158L55.0175 29.9626L35.7283 38.243C35.6529 38.2748 35.572 38.2915 35.4902 38.2919C35.4085 38.2923 35.3274 38.2765 35.2517 38.2454L15.3509 29.9453L0.906301 23.9205L0.884235 23.9106H0.859649C0.631734 23.9109 0.413225 24.002 0.252064 24.164C0.0909033 24.3261 0.00025289 24.5457 0 24.7749V62.3063C0.000253215 62.5354 0.0909033 62.7551 0.252064 62.9171C0.413225 63.0791 0.631734 63.1703 0.859649 63.1705H69.1404C69.3683 63.1703 69.5868 63.0791 69.7479 62.9171C69.9091 62.7551 69.9997 62.5354 70 62.3063V24.7749C69.9997 24.5457 69.9091 24.3261 69.7479 24.164C69.5868 24.002 69.3683 23.9109 69.1404 23.9106ZM69.7544 62.3063C69.7543 62.47 69.6896 62.627 69.5745 62.7427C69.4593 62.8585 69.3032 62.9235 69.1404 62.9236H0.859649C0.696817 62.9235 0.540673 62.8585 0.425533 62.7427C0.310394 62.627 0.245679 62.47 0.245614 62.3063V24.7749C0.245837 24.6152 0.30743 24.4619 0.417517 24.3468C0.527604 24.2318 0.677661 24.164 0.836323 24.1576L15.3509 30.212L35.1572 38.4738C35.3716 38.5615 35.6119 38.5602 35.8253 38.4701L55.0175 30.2305L69.1649 24.1576C69.3233 24.1644 69.473 24.2324 69.5828 24.3474C69.6926 24.4624 69.754 24.6155 69.7544 24.7749V62.3063Z" fill="#3F3D56"/>
<ellipse cx="20.5088" cy="19.2593" rx="1.47368" ry="1.48151" fill="#00843D"/>
<ellipse cx="37.3334" cy="19.2593" rx="1.47368" ry="1.48151" fill="#00843D"/>
<ellipse cx="24.7456" cy="19.2593" rx="1.53509" ry="1.48151" fill="#00843D"/>
<ellipse cx="41.5088" cy="19.2593" rx="1.47368" ry="1.48151" fill="#00843D"/>
<ellipse cx="28.9825" cy="19.2593" rx="1.47368" ry="1.48151" fill="#00843D"/>
<ellipse cx="45.7456" cy="19.2593" rx="1.53509" ry="1.48151" fill="#00843D"/>
<ellipse cx="33.1579" cy="19.2593" rx="1.47368" ry="1.48151" fill="#00843D"/>
<ellipse cx="49.9825" cy="19.2593" rx="1.47368" ry="1.48151" fill="#00843D"/>
</g>
<defs>
<clipPath id="clip0_940_3892">
<rect width="70" height="63.1707" fill="white"/>
</clipPath>
</defs>
</svg>
