<svg width="220" height="220" viewBox="0 0 220 220" fill="none" xmlns="http://www.w3.org/2000/svg">
<g clip-path="url(#clip0_97_8223)">
<path d="M34.2221 24.4445C31.6289 24.4445 29.1419 25.4746 27.3082 27.3083C25.4745 29.142 24.4443 31.629 24.4443 34.2222V73.3333H73.3332V24.4445H34.2221ZM61.111 61.1111H36.6666V36.6667H61.111V61.1111Z" fill="black"/>
<path d="M24.4443 185.778C24.4443 188.371 25.4745 190.858 27.3082 192.692C29.1419 194.525 31.6289 195.556 34.2221 195.556H73.3332V146.667H24.4443V185.778ZM36.6666 158.889H61.111V183.333H36.6666V158.889Z" fill="black"/>
<path d="M146.667 195.556H185.778C188.371 195.556 190.858 194.525 192.692 192.692C194.525 190.858 195.555 188.371 195.555 185.778V146.667H146.667V195.556ZM158.889 158.889H183.333V183.333H158.889V158.889Z" fill="black"/>
<path d="M185.778 24.4445H146.667V73.3333H195.555V34.2222C195.555 31.629 194.525 29.142 192.692 27.3083C190.858 25.4746 188.371 24.4445 185.778 24.4445ZM183.333 61.1111H158.889V36.6667H183.333V61.1111Z" fill="black"/>
<path d="M122.222 61.1111V48.8889H97.7778V73.3334H110V61.1111H122.222Z" fill="black"/>
<path d="M73.3335 73.3334H85.5557V85.5556H73.3335V73.3334Z" fill="black"/>
<path d="M85.5557 85.5555H110V97.7778H85.5557V85.5555Z" fill="black"/>
<path d="M122.222 36.6667V48.8889H134.445V24.4445H85.5557V48.8889H97.7779V36.6667H122.222Z" fill="black"/>
<path d="M24.4443 85.5555H36.6666V110H24.4443V85.5555Z" fill="black"/>
<path d="M73.3332 97.7778V110H61.111V85.5555H48.8888V110H36.6666V122.222H24.4443V134.444H48.8888V122.222H61.111V134.444H73.3332V122.222H85.5554V97.7778H73.3332Z" fill="black"/>
<path d="M122.222 97.7777H134.444V110H146.667V97.7777H158.889V85.5555H134.444V61.1111H122.222V73.3333H110V85.5555H122.222V97.7777Z" fill="black"/>
<path d="M110 183.333H85.5557V195.556H134.445V183.333H122.222V171.111H110V183.333Z" fill="black"/>
<path d="M134.444 122.222V110H122.222V97.7778H110V110H97.7778V122.222H110V134.444H122.222V122.222H134.444Z" fill="black"/>
<path d="M183.333 122.222H195.556V134.444H183.333V122.222Z" fill="black"/>
<path d="M134.444 122.222H171.111V134.444H134.444V122.222Z" fill="black"/>
<path d="M183.333 85.5555H171.111V97.7778H158.889V110H171.111V122.222H183.333V110H195.555V97.7778H183.333V85.5555Z" fill="black"/>
<path d="M122.222 134.444H134.444V171.111H122.222V134.444Z" fill="black"/>
<path d="M85.5557 171.111H97.7779V158.889H110V146.667H97.7779V122.222H85.5557V171.111Z" fill="black"/>
</g>
<defs>
<clipPath id="clip0_97_8223">
<rect width="220" height="220" fill="white"/>
</clipPath>
</defs>
</svg>
