<svg width="36" height="36" viewBox="0 0 36 36" fill="none" xmlns="http://www.w3.org/2000/svg">
<path fill-rule="evenodd" clip-rule="evenodd" d="M18 2.99996C16.2639 2.99979 14.5648 3.50168 13.1074 4.44515C11.65 5.38861 10.4965 6.7334 9.786 8.31746C9.68494 8.54457 9.58144 8.77059 9.4755 8.99546L9.4455 8.99696C9.3495 8.99996 9.219 8.99996 9 8.99996C7.4087 8.99996 5.88258 9.6321 4.75736 10.7573C3.63214 11.8825 3 13.4087 3 15C3 16.5913 3.63214 18.1174 4.75736 19.2426C5.88258 20.3678 7.4087 21 9 21H9.258L12.258 18H9C8.20435 18 7.44129 17.6839 6.87868 17.1213C6.31607 16.5587 6 15.7956 6 15C6 14.2043 6.31607 13.4413 6.87868 12.8786C7.44129 12.316 8.20435 12 9 12H9.096C9.408 12 9.771 12.0015 10.071 11.94C10.444 11.8746 10.8007 11.737 11.121 11.535C11.4825 11.301 11.7315 11.01 11.9205 10.7445C12.0364 10.5735 12.1372 10.3928 12.222 10.2045C12.3015 10.0395 12.399 9.82196 12.516 9.56246L12.522 9.54746C12.9951 8.4902 13.7641 7.59244 14.7361 6.96251C15.7082 6.33258 16.8417 5.9974 18 5.9974C19.1583 5.9974 20.2918 6.33258 21.2639 6.96251C22.2359 7.59244 23.0049 8.4902 23.478 9.54746L23.4855 9.56246C23.601 9.82196 23.6985 10.038 23.778 10.2045C23.847 10.35 23.949 10.5615 24.0795 10.7445C24.2685 11.0085 24.516 11.301 24.879 11.5365C25.242 11.7705 25.6095 11.877 25.929 11.9415C26.229 12.0015 26.592 12.0015 26.904 12.0015L27 12C27.7956 12 28.5587 12.316 29.1213 12.8786C29.6839 13.4413 30 14.2043 30 15C30 15.7956 29.6839 16.5587 29.1213 17.1213C28.5587 17.6839 27.7956 18 27 18H23.742L26.742 21H27C28.5913 21 30.1174 20.3678 31.2426 19.2426C32.3679 18.1174 33 16.5913 33 15C33 13.4087 32.3679 11.8825 31.2426 10.7573C30.1174 9.6321 28.5913 8.99996 27 8.99996C26.781 8.99996 26.6505 8.99996 26.5545 8.99696H26.5245C25.9012 7.23661 24.7458 5.71369 23.2185 4.63919C21.6911 3.5647 19.8674 2.99183 18 2.99996Z" fill="#00843D"/>
<path d="M18 18L16.9395 16.9395L18 15.879L19.0605 16.9395L18 18ZM19.5 31.5C19.5 31.8979 19.3419 32.2794 19.0606 32.5607C18.7793 32.842 18.3978 33 18 33C17.6021 33 17.2206 32.842 16.9393 32.5607C16.658 32.2794 16.5 31.8979 16.5 31.5H19.5ZM10.9395 22.9395L16.9395 16.9395L19.0605 19.0605L13.0605 25.0605L10.9395 22.9395ZM19.0605 16.9395L25.0605 22.9395L22.9395 25.0605L16.9395 19.0605L19.0605 16.9395ZM19.5 18V31.5H16.5V18H19.5Z" fill="#00843D"/>
</svg>
