<svg width="31" height="31" viewBox="0 0 31 31" fill="none" xmlns="http://www.w3.org/2000/svg">
<path fill-rule="evenodd" clip-rule="evenodd" d="M7.50623 1.74268C5.97738 1.74268 4.51111 2.34986 3.42984 3.43072C2.34857 4.51157 1.74082 5.97761 1.74023 7.50646V22.8825C1.74023 24.4117 2.34772 25.8783 3.42906 26.9596C4.51039 28.041 5.977 28.6485 7.50623 28.6485H22.8822C24.4111 28.6479 25.8771 28.0401 26.958 26.9589C28.0388 25.8776 28.646 24.4113 28.646 22.8825V7.50646C28.6454 5.97799 28.038 4.51229 26.9572 3.4315C25.8764 2.35071 24.4107 1.74326 22.8822 1.74268H7.50623ZM24.5407 7.51532C24.5407 7.95577 24.3658 8.37818 24.0543 8.68962C23.7429 9.00106 23.3205 9.17603 22.88 9.17603C22.4396 9.17603 22.0172 9.00106 21.7057 8.68962C21.3943 8.37818 21.2193 7.95577 21.2193 7.51532C21.2193 7.07487 21.3943 6.65246 21.7057 6.34102C22.0172 6.02957 22.4396 5.8546 22.88 5.8546C23.3205 5.8546 23.7429 6.02957 24.0543 6.34102C24.3658 6.65246 24.5407 7.07487 24.5407 7.51532ZM15.1964 10.5887C13.9749 10.5887 12.8035 11.074 11.9397 11.9377C11.076 12.8015 10.5907 13.9729 10.5907 15.1945C10.5907 16.416 11.076 17.5875 11.9397 18.4512C12.8035 19.3149 13.9749 19.8002 15.1964 19.8002C16.418 19.8002 17.5894 19.3149 18.4532 18.4512C19.3169 17.5875 19.8022 16.416 19.8022 15.1945C19.8022 13.9729 19.3169 12.8015 18.4532 11.9377C17.5894 11.074 16.418 10.5887 15.1964 10.5887ZM8.37423 15.1945C8.37423 13.3857 9.09277 11.651 10.3718 10.372C11.6508 9.093 13.3855 8.37446 15.1942 8.37446C17.003 8.37446 18.7377 9.093 20.0167 10.372C21.2957 11.651 22.0142 13.3857 22.0142 15.1945C22.0142 17.0032 21.2957 18.7379 20.0167 20.0169C18.7377 21.2959 17.003 22.0145 15.1942 22.0145C13.3855 22.0145 11.6508 21.2959 10.3718 20.0169C9.09277 18.7379 8.37423 17.0032 8.37423 15.1945Z" fill="#00843D"/>
</svg>
