<svg width="23" height="23" viewBox="0 0 23 23" fill="none" xmlns="http://www.w3.org/2000/svg">
<path opacity="0.4" fill-rule="evenodd" clip-rule="evenodd" d="M8.57422 4.86979H14.4609V3.49916H8.57422V4.86979ZM7.23508 3.55545V3.56227C6.77556 3.60407 6.32096 3.69533 5.8787 3.83265V3.82753C5.86555 3.83306 5.85317 3.83731 5.84129 3.8414L5.84129 3.8414C5.82569 3.84676 5.81096 3.85182 5.79649 3.85909C5.76114 3.86762 5.72662 3.88041 5.69373 3.89661C5.59673 3.92817 5.49973 3.9657 5.40848 4.00408C5.38423 4.01346 5.35998 4.02434 5.33573 4.03521L5.33573 4.03521C5.31148 4.04609 5.28723 4.05696 5.26298 4.06634C5.22968 4.08212 5.19495 4.09939 5.16022 4.11666C5.12549 4.13394 5.09076 4.15121 5.05746 4.16699L4.89305 4.26166C4.86265 4.27716 4.83451 4.29535 4.8058 4.3139C4.78871 4.32495 4.7714 4.33613 4.7533 4.34695C4.50586 4.50644 4.27651 4.69323 4.06935 4.90561L4.05702 4.9184C4.02982 4.95012 4.00272 4.98089 3.976 5.01125C3.93085 5.06252 3.88676 5.11261 3.84493 5.16404L3.8326 5.17598C3.16016 6.10394 2.82312 7.2477 2.88149 8.4068V8.7744H4.2091V8.40339C4.2091 6.78798 4.72371 5.7824 5.86883 5.26724C6.30616 5.08216 6.76816 4.96787 7.23837 4.92608H7.2507V3.56142L7.23508 3.55545ZM19.1647 5.15892L19.1705 5.17086C19.8421 6.09968 20.1775 7.24428 20.1183 8.40339V8.7744H18.7915V8.39401C18.8195 7.70997 18.6822 7.02935 18.3912 6.4144C18.1117 5.88816 17.6645 5.47962 17.1244 5.25786C16.6945 5.07278 16.239 4.95763 15.7746 4.91669V3.55886C16.2341 3.60151 16.6887 3.69192 17.1318 3.82924V3.82241C17.1567 3.83371 17.1757 3.84043 17.2083 3.85195L17.214 3.85397C17.2291 3.85932 17.2432 3.86467 17.2572 3.86996C17.2766 3.87732 17.2957 3.88455 17.3168 3.8915C17.4076 3.92132 17.4926 3.95647 17.5801 3.99263L17.5954 3.99896C17.6358 4.01314 17.6738 4.03072 17.7081 4.04656C17.7192 4.05169 17.7299 4.05664 17.7401 4.06123C17.8124 4.09278 17.8864 4.13031 17.9456 4.16187C17.9851 4.18235 18.0236 4.20427 18.0596 4.22483C18.0791 4.23595 18.0979 4.24667 18.1158 4.25654C18.1452 4.27281 18.1708 4.29021 18.1955 4.30695C18.2135 4.31917 18.2309 4.33103 18.249 4.34183C18.4972 4.50218 18.729 4.68982 18.9387 4.90049L18.9461 4.91328C19.0233 4.9909 19.0965 5.07278 19.1647 5.15892Z" fill="#00843D"/>
<path d="M15.8124 2.60372V5.62394C15.8124 6.00448 15.5037 6.3127 15.1224 6.3127C14.7412 6.3127 14.4324 6.00448 14.4324 5.62394V2.61061C14.429 2.23007 14.736 1.91927 15.1173 1.91668C15.4985 1.9141 15.8098 2.21974 15.8124 2.60028V2.60372Z" fill="#00843D"/>
<path d="M8.5675 2.61462V5.62737C8.5675 6.00956 8.25835 6.31944 7.87707 6.31944C7.49579 6.31944 7.1875 6.00956 7.1875 5.62737V2.61462C7.1875 2.23243 7.49579 1.9234 7.87707 1.9234C8.25835 1.9234 8.5675 2.23243 8.5675 2.61462Z" fill="#00843D"/>
<path fill-rule="evenodd" clip-rule="evenodd" d="M2.875 16.2055V8.77437H20.125V16.2055C20.125 19.446 18.3153 21.0833 14.7287 21.0833H8.26305C4.68473 21.0833 2.875 19.446 2.875 16.2055ZM6.76593 12.9056C6.76593 13.3552 7.11965 13.72 7.55563 13.72C7.99984 13.72 8.35356 13.3467 8.34533 12.8971C8.34533 12.4475 7.99161 12.0828 7.56386 12.0828H7.55563C7.11965 12.0828 6.76593 12.456 6.76593 12.9056ZM10.7062 12.9056C10.7062 13.3552 11.0681 13.72 11.5041 13.72C11.9401 13.72 12.2938 13.3552 12.2938 12.8971C12.2938 12.456 11.9401 12.0912 11.5041 12.0828H11.4959C11.0599 12.0912 10.7062 12.456 10.7062 12.9056ZM15.4444 13.72C15.0084 13.72 14.6547 13.3552 14.6547 12.9056C14.6547 12.456 15.0002 12.0912 15.4444 12.0912C15.8804 12.0912 16.2341 12.456 16.2341 12.9056C16.2341 13.3552 15.8804 13.72 15.4444 13.72ZM15.4444 17.198C15.0084 17.198 14.6547 16.8333 14.6465 16.3837C14.6465 15.9341 15.0002 15.5693 15.4362 15.5693H15.4444C15.8804 15.5693 16.2341 15.9341 16.2341 16.3837C16.2341 16.8333 15.8804 17.198 15.4444 17.198ZM11.5041 17.198C11.0681 17.198 10.7062 16.8333 10.7062 16.3837C10.7062 15.9341 11.0599 15.5693 11.4959 15.5608H11.5041C11.9401 15.5693 12.2856 15.9341 12.2938 16.3752C12.2938 16.8333 11.9401 17.198 11.5041 17.198ZM7.55562 17.198C7.11964 17.198 6.76592 16.8333 6.76592 16.3837C6.75769 15.9341 7.11141 15.5608 7.55562 15.5608C7.9916 15.5608 8.34532 15.9256 8.34532 16.3752C8.34532 16.8248 7.9916 17.198 7.55562 17.198Z" fill="#00843D"/>
</svg>
