<svg width="158" height="169" viewBox="0 0 158 169" fill="none" xmlns="http://www.w3.org/2000/svg">
<path d="M75.6449 140.833H11.2667C5.04442 140.833 0.000489364 135.789 0.000489364 129.567V118.3H86.4668L75.6449 140.833Z" fill="#D3DCFB"/>
<path d="M146.478 50.7001V98.0326V129.566H11.2667C5.04442 129.566 0.000489364 124.522 0.000489364 118.3V50.7001L78.8727 22.5331L146.478 50.7001Z" fill="#EBF5FC"/>
<path d="M19.8965 73.2335H13.9112C12.4529 73.2335 11.2705 72.0512 11.2705 70.5929V64.6076C11.2705 63.1493 12.4529 61.967 13.9112 61.967H19.8965C21.3548 61.967 22.5371 63.1493 22.5371 64.6076V70.5929C22.5371 72.0512 21.3548 73.2335 19.8965 73.2335Z" fill="#3C58A0"/>
<path d="M42.4298 73.2335H36.4444C34.9862 73.2335 33.8038 72.0512 33.8038 70.5929V64.6076C33.8038 63.1493 34.9862 61.967 36.4444 61.967H42.4298C43.888 61.967 45.0704 63.1493 45.0704 64.6076V70.5929C45.0704 72.0512 43.888 73.2335 42.4298 73.2335Z" fill="#3C58A0"/>
<path d="M64.963 73.2335H58.9777C57.5194 73.2335 56.3371 72.0512 56.3371 70.5929V64.6076C56.3371 63.1493 57.5194 61.967 58.9777 61.967H64.963C66.4213 61.967 67.6037 63.1493 67.6037 64.6076V70.5929C67.6037 72.0512 66.4217 73.2335 64.963 73.2335Z" fill="#3C58A0"/>
<path d="M87.4968 73.2335H81.5115C80.0532 73.2335 78.8708 72.0512 78.8708 70.5929V64.6076C78.8708 63.1493 80.0532 61.967 81.5115 61.967H87.4968C88.9551 61.967 90.1374 63.1493 90.1374 64.6076V70.5929C90.1374 72.0512 88.9551 73.2335 87.4968 73.2335Z" fill="#3C58A0"/>
<path d="M110.026 73.2335H104.041C102.583 73.2335 101.4 72.0512 101.4 70.5929V64.6076C101.4 63.1493 102.583 61.967 104.041 61.967H110.026C111.484 61.967 112.667 63.1493 112.667 64.6076V70.5929C112.667 72.0512 111.485 73.2335 110.026 73.2335Z" fill="#3C58A0"/>
<path d="M132.559 73.2335H126.574C125.116 73.2335 123.933 72.0512 123.933 70.5929V64.6076C123.933 63.1493 125.116 61.967 126.574 61.967H132.559C134.018 61.967 135.2 63.1493 135.2 64.6076V70.5929C135.2 72.0512 134.018 73.2335 132.559 73.2335Z" fill="#3C58A0"/>
<path d="M19.8965 95.7667H13.9112C12.4529 95.7667 11.2705 94.5843 11.2705 93.126V87.1407C11.2705 85.6825 12.4529 84.5001 13.9112 84.5001H19.8965C21.3548 84.5001 22.5371 85.6825 22.5371 87.1407V93.126C22.5371 94.5847 21.3548 95.7667 19.8965 95.7667Z" fill="#3C58A0"/>
<path d="M42.4298 95.7667H36.4444C34.9862 95.7667 33.8038 94.5843 33.8038 93.126V87.1407C33.8038 85.6825 34.9862 84.5001 36.4444 84.5001H42.4298C43.888 84.5001 45.0704 85.6825 45.0704 87.1407V93.126C45.0704 94.5847 43.888 95.7667 42.4298 95.7667Z" fill="#3C58A0"/>
<path d="M64.963 95.7667H58.9777C57.5194 95.7667 56.3371 94.5843 56.3371 93.126V87.1407C56.3371 85.6825 57.5194 84.5001 58.9777 84.5001H64.963C66.4213 84.5001 67.6037 85.6825 67.6037 87.1407V93.126C67.6037 94.5847 66.4217 95.7667 64.963 95.7667Z" fill="#3C58A0"/>
<path d="M90.1374 95.7667V87.3167C90.1374 85.761 88.8765 84.5001 87.3209 84.5001H81.6874C80.1317 84.5001 78.8708 85.761 78.8708 87.3167V92.9501C78.8708 94.5058 80.1321 95.7667 81.6874 95.7667H90.1374Z" fill="#3C58A0"/>
<path d="M19.8965 118.3H13.9112C12.4529 118.3 11.2705 117.118 11.2705 115.659V109.674C11.2705 108.216 12.4529 107.034 13.9112 107.034H19.8965C21.3548 107.034 22.5371 108.216 22.5371 109.674V115.659C22.5371 117.118 21.3548 118.3 19.8965 118.3Z" fill="#3C58A0"/>
<path d="M42.4298 118.3H36.4444C34.9862 118.3 33.8038 117.118 33.8038 115.659V109.674C33.8038 108.216 34.9862 107.034 36.4444 107.034H42.4298C43.888 107.034 45.0704 108.216 45.0704 109.674V115.659C45.0704 117.118 43.888 118.3 42.4298 118.3Z" fill="#3C58A0"/>
<path d="M64.963 118.3H58.9777C57.5194 118.3 56.3371 117.118 56.3371 115.659V109.674C56.3371 108.216 57.5194 107.034 58.9777 107.034H64.963C66.4213 107.034 67.6037 108.216 67.6037 109.674V115.659C67.6037 117.118 66.4217 118.3 64.963 118.3Z" fill="#3C58A0"/>
<path d="M132.48 61.9666H126.654C126.301 61.9666 125.966 62.0359 125.657 62.1577C126.665 62.5558 127.379 63.5368 127.379 64.6868V70.5127C127.379 71.6627 126.665 72.6437 125.657 73.0417C125.966 73.1639 126.301 73.2332 126.654 73.2332H132.48C133.982 73.2332 135.2 72.0152 135.2 70.513V64.6871C135.2 63.1846 133.982 61.9666 132.48 61.9666Z" fill="#2A428C"/>
<path d="M109.947 61.9666H104.121C103.768 61.9666 103.433 62.0359 103.123 62.1577C104.132 62.5558 104.846 63.5368 104.846 64.6868V70.5127C104.846 71.6627 104.131 72.6437 103.123 73.0417C103.433 73.1639 103.768 73.2332 104.121 73.2332H109.947C111.449 73.2332 112.667 72.0152 112.667 70.513V64.6871C112.667 63.1846 111.449 61.9666 109.947 61.9666Z" fill="#2A428C"/>
<path d="M87.4168 61.9666H81.5909C81.2384 61.9666 80.9027 62.0359 80.5934 62.1577C81.6018 62.5558 82.3164 63.5368 82.3164 64.6868V70.5127C82.3164 71.6627 81.6018 72.6437 80.5934 73.0417C80.9027 73.1639 81.2384 73.2332 81.5909 73.2332H87.4168C88.9193 73.2332 90.1373 72.0152 90.1373 70.513V64.6871C90.137 63.1846 88.919 61.9666 87.4168 61.9666Z" fill="#2A428C"/>
<path d="M64.8835 61.9666H59.0576C58.7051 61.9666 58.3694 62.0359 58.0601 62.1577C59.0685 62.5558 59.7831 63.5368 59.7831 64.6868V70.5127C59.7831 71.6627 59.0685 72.6437 58.0601 73.0417C58.3694 73.1639 58.7051 73.2332 59.0576 73.2332H64.8835C66.386 73.2332 67.604 72.0152 67.604 70.513V64.6871C67.6037 63.1846 66.386 61.9666 64.8835 61.9666Z" fill="#2A428C"/>
<path d="M42.3502 61.9666H36.5244C36.1718 61.9666 35.8362 62.0359 35.5269 62.1577C36.5353 62.5558 37.2495 63.5368 37.2495 64.6868V70.5127C37.2495 71.6627 36.5349 72.6437 35.5269 73.0417C35.8362 73.1639 36.1718 73.2332 36.5244 73.2332H42.3502C43.8528 73.2332 45.0708 72.0152 45.0708 70.513V64.6871C45.0708 63.1846 43.8528 61.9666 42.3502 61.9666Z" fill="#2A428C"/>
<path d="M19.817 61.9666H13.9911C13.6386 61.9666 13.3029 62.0359 12.9936 62.1577C14.002 62.5558 14.7166 63.5368 14.7166 64.6868V70.5127C14.7166 71.6627 14.002 72.6437 12.9936 73.0417C13.3029 73.1639 13.6386 73.2332 13.9911 73.2332H19.817C21.3195 73.2332 22.5375 72.0152 22.5375 70.513V64.6871C22.5372 63.1846 21.3192 61.9666 19.817 61.9666Z" fill="#2A428C"/>
<path d="M19.817 84.5H13.9911C13.6386 84.5 13.3029 84.5693 12.9936 84.6911C14.002 85.0892 14.7166 86.0702 14.7166 87.2202V93.0464C14.7166 94.1964 14.002 95.1774 12.9936 95.5754C13.3029 95.6976 13.6386 95.7669 13.9911 95.7669H19.817C21.3195 95.7669 22.5375 94.5489 22.5375 93.0467V87.2205C22.5372 85.718 21.3192 84.5 19.817 84.5Z" fill="#2A428C"/>
<path d="M19.817 107.034H13.9911C13.6386 107.034 13.3029 107.103 12.9936 107.225C14.002 107.623 14.7166 108.604 14.7166 109.754V115.58C14.7166 116.73 14.002 117.711 12.9936 118.109C13.3029 118.231 13.6386 118.3 13.9911 118.3H19.817C21.3195 118.3 22.5375 117.082 22.5375 115.58V109.754C22.5372 108.251 21.3192 107.034 19.817 107.034Z" fill="#2A428C"/>
<path d="M42.3502 84.5H36.5244C36.1718 84.5 35.8362 84.5693 35.5269 84.6911C36.5353 85.0892 37.2495 86.0702 37.2495 87.2202V93.0464C37.2495 94.1964 36.5349 95.1774 35.5269 95.5754C35.8362 95.6976 36.1718 95.7669 36.5244 95.7669H42.3502C43.8528 95.7669 45.0708 94.5489 45.0708 93.0467V87.2205C45.0708 85.718 43.8528 84.5 42.3502 84.5Z" fill="#2A428C"/>
<path d="M42.3502 107.034H36.5244C36.1718 107.034 35.8362 107.103 35.5269 107.225C36.5353 107.623 37.2495 108.604 37.2495 109.754V115.58C37.2495 116.73 36.5349 117.711 35.5269 118.109C35.8362 118.231 36.1718 118.3 36.5244 118.3H42.3502C43.8528 118.3 45.0708 117.082 45.0708 115.58V109.754C45.0708 108.251 43.8528 107.034 42.3502 107.034Z" fill="#2A428C"/>
<path d="M64.8835 84.5H59.0576C58.7051 84.5 58.3694 84.5693 58.0601 84.6911C59.0685 85.0892 59.7831 86.0702 59.7831 87.2202V93.0464C59.7831 94.1964 59.0685 95.1774 58.0601 95.5754C58.3694 95.6976 58.7051 95.7669 59.0576 95.7669H64.8835C66.386 95.7669 67.604 94.5489 67.604 93.0467V87.2205C67.6037 85.718 66.386 84.5 64.8835 84.5Z" fill="#2A428C"/>
<path d="M90.1373 95.7666V87.2202C90.1373 85.7177 88.9193 84.5 87.4168 84.5H81.5909C81.2384 84.5 80.9027 84.5693 80.5934 84.6911C81.6018 85.0892 82.3164 86.0702 82.3164 87.2202V93.0464C82.3164 94.1964 81.6018 95.1774 80.5934 95.5754C80.9027 95.6976 81.2384 95.7669 81.5909 95.7669H90.1373V95.7666Z" fill="#2A428C"/>
<path d="M64.8835 107.034H59.0576C58.7051 107.034 58.3694 107.103 58.0601 107.225C59.0685 107.623 59.7831 108.604 59.7831 109.754V115.58C59.7831 116.73 59.0685 117.711 58.0601 118.109C58.3694 118.231 58.7051 118.3 59.0576 118.3H64.8835C66.386 118.3 67.604 117.082 67.604 115.58V109.754C67.6037 108.251 66.386 107.034 64.8835 107.034Z" fill="#2A428C"/>
<path d="M138.652 47.4392V98.0326V129.567H146.478V98.0326V50.7001L138.652 47.4392Z" fill="#D3DCFB"/>
<path d="M146.478 50.7V22.5331C146.478 16.3108 141.434 11.2669 135.212 11.2669H11.2667C5.04442 11.2669 0.000489364 16.3108 0.000489364 22.5331V50.7H146.478Z" fill="#FF4155"/>
<path d="M35.5003 25.0837H28.1669C26.7582 25.0837 25.6168 23.9419 25.6168 22.5335C25.6168 21.1251 26.7585 19.9833 28.1669 19.9833H35.5003C36.9091 19.9833 38.0505 21.1251 38.0505 22.5335C38.0505 23.9419 36.9087 25.0837 35.5003 25.0837Z" fill="#E80054"/>
<path d="M53.5167 25.0837H46.1834C44.7746 25.0837 43.6332 23.9419 43.6332 22.5335C43.6332 21.1251 44.7749 19.9833 46.1834 19.9833H53.5167C54.9255 19.9833 56.0669 21.1251 56.0669 22.5335C56.0669 23.9419 54.9255 25.0837 53.5167 25.0837Z" fill="#E80054"/>
<path d="M100.288 25.0837H92.9539C91.5451 25.0837 90.4037 23.9419 90.4037 22.5335C90.4037 21.1251 91.5454 19.9833 92.9539 19.9833H100.288C101.696 19.9833 102.838 21.1251 102.838 22.5335C102.838 23.9419 101.696 25.0837 100.288 25.0837Z" fill="#E80054"/>
<path d="M118.304 25.0837H110.97C109.562 25.0837 108.42 23.9419 108.42 22.5335C108.42 21.1251 109.562 19.9833 110.97 19.9833H118.304C119.713 19.9833 120.854 21.1251 120.854 22.5335C120.854 23.9419 119.712 25.0837 118.304 25.0837Z" fill="#E80054"/>
<path d="M47.8835 21.125C47.8835 25.014 44.7309 28.1666 40.842 28.1666C36.953 28.1666 33.8004 25.014 33.8004 21.125V7.04156C33.8001 3.15258 36.9526 0 40.8416 0C44.7306 0 47.8832 3.15258 47.8832 7.04156V21.125H47.8835Z" fill="#EBF5FC"/>
<path d="M112.671 21.125C112.671 25.014 109.518 28.1666 105.629 28.1666C101.74 28.1666 98.5873 25.014 98.5873 21.125V7.04156C98.5873 3.15258 101.74 0 105.629 0C109.518 0 112.67 3.15258 112.67 7.04156V21.125H112.671Z" fill="#EBF5FC"/>
<path d="M105.629 0C104.183 0 102.84 0.437024 101.722 1.18432C103.611 2.4472 104.857 4.59832 104.857 7.04189V21.125C104.857 23.5683 103.611 25.7197 101.722 26.9826C102.84 27.7296 104.183 28.1669 105.629 28.1669C109.517 28.1669 112.67 25.0143 112.67 21.1253V7.04156C112.67 3.15258 109.518 0 105.629 0V0Z" fill="#D3DCFB"/>
<path d="M40.8416 0C39.3958 0 38.0531 0.437024 36.9348 1.18432C38.8245 2.4472 40.0699 4.59832 40.0699 7.04189V21.125C40.0699 23.5683 38.8245 25.7197 36.9348 26.9826C38.0527 27.7296 39.3958 28.1669 40.8416 28.1669C44.7306 28.1669 47.8831 25.0143 47.8831 21.1253V7.04156C47.8835 3.15258 44.7309 0 40.8416 0V0Z" fill="#D3DCFB"/>
<path d="M135.212 11.2665H127.388C133.61 11.2665 138.654 16.3104 138.654 22.5327V50.7H146.478V22.5331C146.478 16.3108 141.434 11.2665 135.212 11.2665Z" fill="#E80054"/>
<path d="M0 36.8829H146.478V41.9836H0V36.8829Z" fill="#E80054"/>
<path d="M115.489 169C138.823 169 157.739 150.084 157.739 126.75C157.739 103.416 138.823 84.5 115.489 84.5C92.1552 84.5 73.2392 103.416 73.2392 126.75C73.2392 150.084 92.1552 169 115.489 169Z" fill="#4FABF7"/>
<path d="M115.489 157.734C132.601 157.734 146.473 143.862 146.473 126.75C146.473 109.638 132.601 95.7666 115.489 95.7666C98.3776 95.7666 84.5059 109.638 84.5059 126.75C84.5059 143.862 98.3776 157.734 115.489 157.734Z" fill="#EBF5FC"/>
<path d="M115.489 123.667C114.08 123.667 112.939 122.525 112.939 121.117V107.033C112.939 105.625 114.081 104.483 115.489 104.483C116.898 104.483 118.039 105.625 118.039 107.033V121.117C118.039 122.525 116.898 123.667 115.489 123.667Z" fill="#3C58A0"/>
<path d="M129.572 129.3H121.122C119.713 129.3 118.572 128.159 118.572 126.75C118.572 125.342 119.714 124.2 121.122 124.2H129.572C130.981 124.2 132.123 125.342 132.123 126.75C132.123 128.159 130.981 129.3 129.572 129.3Z" fill="#3C58A0"/>
<path d="M115.489 84.5C114.171 84.5 112.867 84.5637 111.579 84.6819C133.079 86.6554 149.918 104.735 149.918 126.75C149.918 148.765 133.079 166.845 111.578 168.818C112.866 168.936 114.17 169 115.489 169C138.823 169 157.739 150.084 157.739 126.75C157.739 103.416 138.823 84.5 115.489 84.5Z" fill="#1886EA"/>
<path d="M115.489 95.7666C114.166 95.7666 112.861 95.8501 111.581 96.0112C126.848 97.9326 138.657 110.962 138.657 126.75C138.657 142.538 126.848 155.568 111.581 157.489C112.861 157.65 114.166 157.734 115.489 157.734C132.601 157.734 146.473 143.862 146.473 126.75C146.473 109.639 132.601 95.7666 115.489 95.7666Z" fill="#D3DCFB"/>
<path d="M115.489 132.384C118.6 132.384 121.122 129.861 121.122 126.75C121.122 123.639 118.6 121.117 115.489 121.117C112.378 121.117 109.855 123.639 109.855 126.75C109.855 129.861 112.378 132.384 115.489 132.384Z" fill="#FFDD40"/>
</svg>
