<svg width="80" height="80" viewBox="0 0 80 80" fill="none" xmlns="http://www.w3.org/2000/svg">
<path d="M49.1333 30L47.98 60M32.02 60L30.8667 30M64.0933 19.3C65.2333 19.4734 66.3667 19.6567 67.5 19.8534M64.0933 19.3L60.5333 65.5767C60.388 67.4608 59.5369 69.2206 58.1501 70.5042C56.7633 71.7878 54.943 72.5006 53.0533 72.5H26.9467C25.057 72.5006 23.2367 71.7878 21.8499 70.5042C20.4631 69.2206 19.612 67.4608 19.4667 65.5767L15.9067 19.3M64.0933 19.3C60.2462 18.7184 56.3792 18.277 52.5 17.9767M15.9067 19.3C14.7667 19.47 13.6333 19.6534 12.5 19.85M15.9067 19.3C19.7538 18.7184 23.6208 18.277 27.5 17.9767M52.5 17.9767V14.9234C52.5 10.99 49.4667 7.71003 45.5333 7.5867C41.8454 7.46882 38.1546 7.46882 34.4667 7.5867C30.5333 7.71003 27.5 10.9934 27.5 14.9234V17.9767M52.5 17.9767C44.1791 17.3336 35.8209 17.3336 27.5 17.9767" stroke="#FF4040" stroke-width="5" stroke-linecap="round" stroke-linejoin="round"/>
</svg>
