<svg width="36" height="36" viewBox="0 0 36 36" fill="none" xmlns="http://www.w3.org/2000/svg">
<circle opacity="0.1" cx="18" cy="18" r="17.5" fill="white" stroke="white"/>
<path d="M26.7473 25.4825L23.4102 22.17C24.7056 20.5537 25.3329 18.5021 25.1631 16.4372C24.9934 14.3723 24.0396 12.4509 22.4978 11.0681C20.9559 9.68538 18.9433 8.94636 16.8738 9.00303C14.8042 9.05971 12.835 9.90777 11.371 11.3728C9.90708 12.8379 9.05966 14.8086 9.00303 16.8797C8.9464 18.9509 9.68486 20.965 11.0666 22.508C12.4483 24.051 14.3682 25.0056 16.4316 25.1754C18.4949 25.3453 20.5449 24.7175 22.16 23.4212L25.47 26.7337C25.5536 26.8181 25.6531 26.8851 25.7627 26.9308C25.8723 26.9765 25.9899 27 26.1086 27C26.2274 27 26.3449 26.9765 26.4546 26.9308C26.5642 26.8851 26.6636 26.8181 26.7473 26.7337C26.9094 26.5659 27 26.3416 27 26.1081C27 25.8747 26.9094 25.6504 26.7473 25.4825ZM17.114 23.4212C15.8687 23.4212 14.6514 23.0516 13.616 22.3593C12.5806 21.6669 11.7736 20.6828 11.297 19.5315C10.8205 18.3801 10.6958 17.1132 10.9387 15.8909C11.1817 14.6686 11.7813 13.5459 12.6619 12.6646C13.5424 11.7834 14.6643 11.1833 15.8856 10.9402C17.107 10.6971 18.373 10.8218 19.5235 11.2987C20.674 11.7757 21.6573 12.5833 22.3491 13.6195C23.041 14.6557 23.4102 15.8739 23.4102 17.1202C23.4102 18.7913 22.7469 20.394 21.5661 21.5757C20.3853 22.7573 18.7839 23.4212 17.114 23.4212Z" fill="white"/>
</svg>
