<svg width="17" height="16" viewBox="0 0 17 16" fill="none" xmlns="http://www.w3.org/2000/svg">
<path fill-rule="evenodd" clip-rule="evenodd" d="M6.49533 12.5467L1.87052 14.9133C1.50126 15.0926 1.04635 14.9657 0.842782 14.6267V14.6267C0.783887 14.5216 0.752113 14.4052 0.75 14.2867V3.8C0.75 1.8 2.2131 1 4.31853 1H9.26451C11.3057 1 12.833 1.74667 12.833 3.66667V14.2867C12.833 14.4759 12.7526 14.6573 12.6094 14.7911C12.4662 14.9248 12.2719 15 12.0694 15C11.9402 14.9981 11.8132 14.9684 11.6982 14.9133L7.04488 12.5467C6.87341 12.4601 6.6668 12.4601 6.49533 12.5467Z" stroke="#979797" stroke-width="1.5" stroke-linecap="round" stroke-linejoin="round"/>
</svg>
