<svg width="30" height="30" viewBox="0 0 30 30" fill="none" xmlns="http://www.w3.org/2000/svg">
<path d="M15.0004 5.79934C17.1497 5.76628 19.2283 6.56683 20.7999 8.03298L25.033 3.89447C22.3172 1.35015 18.722 -0.0450215 15.0004 0.00110853C12.2197 0.000466141 9.49369 0.773201 7.12715 2.2329C4.76062 3.69259 2.84688 5.7817 1.59997 8.26658L6.45043 12.0316C7.04352 10.2286 8.18773 8.65727 9.72171 7.53911C11.2557 6.42096 13.102 5.81243 15.0004 5.79934Z" fill="#E43E2B"/>
<path d="M29.4 15.3312C29.4177 14.3003 29.3111 13.271 29.0827 12.2656H15.0001V17.8316H23.2673C23.1105 18.8075 22.7579 19.7416 22.2307 20.5777C21.7035 21.4138 21.0126 22.1346 20.1996 22.6969L24.9332 26.3624C26.4084 24.9384 27.5686 23.2209 28.3387 21.3208C29.1089 19.4208 29.4719 17.3803 29.4043 15.3312H29.4Z" fill="#3B7DED"/>
<path d="M6.46778 17.9633C6.13982 17.0086 5.97075 16.0066 5.9673 14.9972C5.97328 13.9893 6.13629 12.9886 6.45047 12.031L1.60001 8.26596C0.547983 10.3542 0 12.6598 0 14.9979C0 17.336 0.547983 19.6416 1.60001 21.7298L6.46778 17.9633Z" fill="#F0B501"/>
<path d="M15.0003 29.9943C18.6541 30.0976 22.2086 28.7978 24.9334 26.3619L20.1998 22.6964C18.665 23.7251 16.8473 24.2494 15.0003 24.1961C13.1036 24.1848 11.2586 23.5767 9.72697 22.458C8.19539 21.3393 7.05503 19.7669 6.46764 17.9638L1.61718 21.7303C2.86073 24.214 4.77133 26.3027 7.13502 27.7622C9.4987 29.2218 12.2221 29.9947 15.0003 29.9943Z" fill="#2BA24C"/>
</svg>
