<svg width="374" height="279" viewBox="0 0 374 279" fill="none" xmlns="http://www.w3.org/2000/svg">
<path d="M374 244.895H0V245.082H374V244.895Z" fill="#EBEBEB"/>
<path d="M336.525 256.931H311.751V257.118H336.525V256.931Z" fill="#EBEBEB"/>
<path d="M247.753 258.965H241.252V259.152H247.753V258.965Z" fill="#EBEBEB"/>
<path d="M311.003 249.989H296.649V250.176H311.003V249.989Z" fill="#EBEBEB"/>
<path d="M71.5462 251.246H39.2401V251.433H71.5462V251.246Z" fill="#EBEBEB"/>
<path d="M82.9457 251.246H78.2109V251.433H82.9457V251.246Z" fill="#EBEBEB"/>
<path d="M168.412 254.402H98.3395V254.589H168.412V254.402Z" fill="#EBEBEB"/>
<path d="M177.276 211.534H32.8447C31.7132 211.532 30.6287 211.082 29.8294 210.281C29.03 209.48 28.5811 208.395 28.5811 207.263V4.23368C28.5909 3.10871 29.0442 2.03305 29.8425 1.24035C30.6408 0.447647 31.7196 0.00192714 32.8447 0H177.276C178.409 0 179.495 0.449988 180.296 1.25097C181.097 2.05195 181.547 3.13832 181.547 4.27108V207.263C181.547 208.396 181.097 209.482 180.296 210.283C179.495 211.084 178.409 211.534 177.276 211.534ZM32.8447 0.149601C31.7628 0.151582 30.7259 0.582741 29.9616 1.34844C29.1973 2.11414 28.7681 3.15181 28.7681 4.23368V207.263C28.7681 208.345 29.1973 209.383 29.9616 210.149C30.7259 210.914 31.7628 211.345 32.8447 211.347H177.276C178.359 211.345 179.396 210.914 180.162 210.149C180.927 209.384 181.358 208.346 181.36 207.263V4.23368C181.358 3.15112 180.927 2.11347 180.162 1.34798C179.396 0.582498 178.359 0.151578 177.276 0.149601H32.8447Z" fill="#EBEBEB"/>
<path d="M339.076 211.534H194.637C193.505 211.532 192.42 211.082 191.619 210.281C190.819 209.481 190.368 208.395 190.366 207.263V4.23368C190.378 3.10802 190.833 2.03237 191.632 1.23988C192.432 0.447385 193.511 0.00190612 194.637 0H339.076C340.2 0.00389296 341.276 0.450482 342.073 1.24297C342.87 2.03546 343.322 3.11 343.332 4.23368V207.263C343.332 208.393 342.884 209.478 342.086 210.278C341.289 211.079 340.206 211.53 339.076 211.534ZM194.637 0.149601C193.554 0.151578 192.517 0.582498 191.751 1.34798C190.986 2.11347 190.555 3.15112 190.553 4.23368V207.263C190.555 208.346 190.986 209.384 191.751 210.149C192.517 210.914 193.554 211.345 194.637 211.347H339.076C340.158 211.345 341.196 210.914 341.962 210.149C342.727 209.384 343.158 208.346 343.16 207.263V4.23368C343.158 3.15112 342.727 2.11347 341.962 1.34798C341.196 0.582498 340.158 0.151578 339.076 0.149601H194.637Z" fill="#EBEBEB"/>
<path d="M181.27 88.9222H75.0693V244.633H181.27V88.9222Z" fill="#F0F0F0"/>
<path d="M177.515 93.8217H78.8168V122.582H177.515V93.8217Z" fill="#E0E0E0"/>
<path d="M84.4268 98.4742H78.8168V122.575H84.4268V98.4742Z" fill="#EBEBEB"/>
<path d="M111.542 98.4742H105.932V122.575H111.542V98.4742Z" fill="#EBEBEB"/>
<path d="M142.316 97.8688L136.787 98.8218L140.881 122.572L146.41 121.619L142.316 97.8688Z" fill="#EBEBEB"/>
<path d="M91.3757 101.653H85.7657V122.582H91.3757V101.653Z" fill="#EBEBEB"/>
<path d="M104.264 101.653H98.6537V122.582H104.264V101.653Z" fill="#EBEBEB"/>
<path d="M136.794 101.653H131.184V122.582H136.794V101.653Z" fill="#EBEBEB"/>
<path d="M118.91 100.927L113.434 102.144L117.975 122.575L123.451 121.358L118.91 100.927Z" fill="#EBEBEB"/>
<path d="M96.2227 97.2773H93.4177V122.575H96.2227V97.2773Z" fill="#EBEBEB"/>
<path d="M129.569 97.2773H126.764V122.575H129.569V97.2773Z" fill="#EBEBEB"/>
<path d="M78.8242 155.898H177.523V127.138L78.8242 127.138V155.898Z" fill="#E0E0E0"/>
<path d="M171.905 155.891H177.515V131.79H171.905V155.891Z" fill="#EBEBEB"/>
<path d="M144.798 155.891H150.408V131.79H144.798V155.891Z" fill="#EBEBEB"/>
<path d="M109.931 154.933L115.46 155.886L119.554 132.136L114.025 131.183L109.931 154.933Z" fill="#EBEBEB"/>
<path d="M164.956 155.898H170.566V134.969H164.956V155.898Z" fill="#EBEBEB"/>
<path d="M152.076 155.898H157.686V134.969H152.076V155.898Z" fill="#EBEBEB"/>
<path d="M119.545 155.898H125.155V134.969H119.545V155.898Z" fill="#EBEBEB"/>
<path d="M132.907 154.675L138.383 155.892L142.924 135.462L137.447 134.245L132.907 154.675Z" fill="#EBEBEB"/>
<path d="M160.109 155.891H162.914V130.593H160.109V155.891Z" fill="#EBEBEB"/>
<path d="M126.771 155.891H129.576V130.593H126.771V155.891Z" fill="#EBEBEB"/>
<path d="M84.4268 131.79H78.8168V155.891H84.4268V131.79Z" fill="#EBEBEB"/>
<path d="M91.3757 134.962H85.7657V155.891H91.3757V134.962Z" fill="#EBEBEB"/>
<path d="M104.264 134.962H98.6537V155.891H104.264V134.962Z" fill="#EBEBEB"/>
<path d="M96.2227 130.593H93.4177V155.891H96.2227V130.593Z" fill="#EBEBEB"/>
<path d="M177.515 160.446H78.8168V189.207H177.515V160.446Z" fill="#E0E0E0"/>
<path d="M141.08 165.099H135.47V189.199H141.08V165.099Z" fill="#EBEBEB"/>
<path d="M171.859 164.491L166.33 165.444L170.424 189.195L175.953 188.242L171.859 164.491Z" fill="#EBEBEB"/>
<path d="M120.914 168.278H115.304V189.207H120.914V168.278Z" fill="#EBEBEB"/>
<path d="M133.802 168.278H128.192V189.207H133.802V168.278Z" fill="#EBEBEB"/>
<path d="M166.333 168.278H160.723V189.207H166.333V168.278Z" fill="#EBEBEB"/>
<path d="M148.451 167.552L142.975 168.769L147.516 189.2L152.992 187.983L148.451 167.552Z" fill="#EBEBEB"/>
<path d="M125.761 163.902H122.956V189.199H125.761V163.902Z" fill="#EBEBEB"/>
<path d="M159.107 163.902H156.302V189.199H159.107V163.902Z" fill="#EBEBEB"/>
<path d="M107.354 164.497L101.825 165.45L105.919 189.2L111.448 188.247L107.354 164.497Z" fill="#EBEBEB"/>
<path d="M101.825 168.278H96.2152V189.207H101.825V168.278Z" fill="#EBEBEB"/>
<path d="M83.9469 167.552L78.4705 168.769L83.0111 189.2L88.4875 187.983L83.9469 167.552Z" fill="#EBEBEB"/>
<path d="M94.6071 163.902H91.8021V189.199H94.6071V163.902Z" fill="#EBEBEB"/>
<path d="M56.7433 245.037H75.0693L75.0693 88.9223H56.7433L56.7433 245.037Z" fill="#E0E0E0"/>
<path d="M243.429 240.961H227.863L236.046 174.284C236.243 172.891 236.927 171.613 237.978 170.677C239.028 169.742 240.377 169.209 241.784 169.175H309.672L299.716 240.931L243.429 240.961Z" fill="#F5F5F5"/>
<path d="M292.797 240.961H308.363L316.554 174.284C316.654 173.643 316.611 172.988 316.43 172.365C316.249 171.742 315.933 171.167 315.505 170.679C315.077 170.192 314.547 169.805 313.953 169.545C313.358 169.285 312.714 169.159 312.066 169.175H306.717C305.314 169.218 303.97 169.753 302.921 170.687C301.872 171.621 301.185 172.895 300.98 174.284L292.797 240.961Z" fill="#F0F0F0"/>
<path d="M287.067 240.856L289.887 208.617C289.947 207.918 290.244 207.26 290.73 206.754C291.216 206.247 291.861 205.923 292.558 205.835L293.717 205.685C294.653 205.568 295.52 205.132 296.173 204.451C296.825 203.77 297.223 202.885 297.3 201.945L297.816 196.066C297.867 195.496 297.799 194.921 297.615 194.379C297.432 193.837 297.138 193.339 296.752 192.917C296.365 192.495 295.895 192.158 295.372 191.927C294.848 191.697 294.282 191.578 293.71 191.578H319.725C320.297 191.578 320.863 191.697 321.387 191.927C321.911 192.158 322.381 192.495 322.767 192.917C323.153 193.339 323.448 193.837 323.631 194.379C323.814 194.921 323.883 195.496 323.832 196.066L323.315 201.945C323.239 202.885 322.84 203.77 322.188 204.451C321.536 205.132 320.668 205.568 319.733 205.685L318.573 205.835C317.877 205.924 317.233 206.249 316.747 206.755C316.262 207.261 315.964 207.918 315.903 208.617L313.083 240.856C312.982 241.989 312.461 243.043 311.622 243.811C310.783 244.58 309.687 245.006 308.55 245.007H282.535C283.672 245.006 284.768 244.58 285.607 243.811C286.446 243.043 286.967 241.989 287.067 240.856Z" fill="#E6E6E6"/>
<path d="M215.469 200.576C215.263 198.129 214.145 195.848 212.337 194.186C210.529 192.524 208.163 191.601 205.707 191.6H228.357C230.806 191.61 233.163 192.537 234.963 194.199C236.763 195.86 237.875 198.135 238.081 200.576L240.325 226.128H217.705L215.469 200.576Z" fill="#E6E6E6"/>
<path d="M195.647 191.63H205.7C208.156 191.631 210.522 192.554 212.33 194.216C214.138 195.878 215.255 198.159 215.461 200.606L217.705 226.158H271.651L273.895 200.606C274.099 198.165 275.211 195.888 277.011 194.227C278.811 192.565 281.169 191.638 283.619 191.63H293.68C294.252 191.63 294.818 191.749 295.342 191.979C295.866 192.21 296.336 192.547 296.722 192.969C297.108 193.392 297.402 193.89 297.586 194.432C297.769 194.974 297.837 195.548 297.786 196.118L297.27 201.997C297.193 202.937 296.795 203.822 296.143 204.503C295.49 205.185 294.623 205.62 293.687 205.737L292.528 205.887C291.832 205.975 291.187 206.3 290.701 206.806C290.215 207.312 289.917 207.97 289.857 208.67L287.067 240.856C286.967 241.989 286.446 243.043 285.607 243.811C284.768 244.58 283.672 245.006 282.535 245.007H206.822C205.685 245.006 204.589 244.58 203.75 243.811C202.911 243.043 202.39 241.989 202.289 240.856L199.469 208.617C199.407 207.919 199.109 207.262 198.623 206.757C198.138 206.251 197.494 205.925 196.799 205.835L195.639 205.685C194.703 205.567 193.836 205.131 193.182 204.45C192.529 203.77 192.129 202.885 192.049 201.945L191.54 196.066C191.497 195.5 191.571 194.931 191.758 194.395C191.945 193.86 192.24 193.368 192.625 192.952C193.011 192.535 193.478 192.203 193.998 191.976C194.518 191.748 195.079 191.631 195.647 191.63Z" fill="#F0F0F0"/>
<path d="M76.4157 81.143C76.4157 81.143 75.5854 75.6752 79.5722 72.167C83.5591 68.6589 83.2075 66.5795 82.0631 66.3102C80.9186 66.0409 79.8789 69.5416 78.1286 70.5065C78.1286 70.5065 78.0688 65.5098 79.849 63.6772C81.6292 61.8446 82.5642 57.0948 80.8663 57.0126C79.1683 56.9303 79.0038 59.825 78.6223 61.882C78.2408 63.939 76.3783 66.8263 76.3783 66.8263C76.3783 66.8263 76.0118 62.3383 74.8823 60.5207C73.7528 58.703 76.7972 54.4768 75.6303 52.6442C74.4634 50.8116 72.3466 54.3048 72.5186 58.2468C72.6906 62.1887 75.3236 66.3925 74.7102 70.5065C74.7102 70.5065 73.5508 67.6117 72.5111 67.3499C71.4714 67.0881 70.4167 65.1807 69.7211 64.4701C69.0254 63.7595 68.1428 66.213 69.7211 68.4869C71.2994 70.7608 75.3236 76.857 74.7102 81.7788L76.4157 81.143Z" fill="#E6E6E6"/>
<path d="M78.7943 78.6522L80.1033 86.8428C80.1974 87.4375 80.1614 88.0455 79.9979 88.6249C79.8344 89.2044 79.5473 89.7415 79.1563 90.1993C78.7653 90.6572 78.2797 91.0248 77.733 91.277C77.1863 91.5291 76.5914 91.6598 75.9893 91.6599H74.5981C73.996 91.6598 73.4011 91.5291 72.8544 91.277C72.3077 91.0248 71.8221 90.6572 71.4311 90.1993C71.0401 89.7415 70.753 89.2044 70.5895 88.6249C70.426 88.0455 70.39 87.4375 70.4841 86.8428L71.808 78.6522H78.7943Z" fill="#E6E6E6"/>
<path d="M157.117 90.0592H161.179V72.5934H157.117V90.0592Z" fill="#EBEBEB"/>
<path d="M137.475 90.0592H141.537V72.5934H137.475V90.0592Z" fill="#EBEBEB"/>
<path d="M112.211 89.365L116.213 90.0549L119.18 72.843L115.177 72.153L112.211 89.365Z" fill="#EBEBEB"/>
<path d="M152.083 90.0518H156.145V74.8898H152.083V90.0518Z" fill="#EBEBEB"/>
<path d="M142.748 90.0518H146.81V74.8898H142.748V90.0518Z" fill="#EBEBEB"/>
<path d="M119.171 90.0518H123.233V74.8898H119.171V90.0518Z" fill="#EBEBEB"/>
<path d="M128.858 89.1722L132.823 90.0533L136.113 75.2525L132.148 74.3713L128.858 89.1722Z" fill="#EBEBEB"/>
<path d="M148.568 90.0592H150.602V71.7257H148.568V90.0592Z" fill="#EBEBEB"/>
<path d="M124.4 90.0592H126.434V71.7257H124.4V90.0592Z" fill="#EBEBEB"/>
<path d="M109.919 76.1913H90.119V89.8572H109.919V76.1913Z" fill="#EBEBEB"/>
<path d="M177.822 81.7863H161.239V91.989H177.822V81.7863Z" fill="#EBEBEB"/>
<path d="M173.947 72.8177H165.652V83.0205H173.947V72.8177Z" fill="#EBEBEB"/>
<path d="M312.522 59.3164H292.797V141.507H312.522V59.3164Z" fill="#E0E0E0"/>
<path d="M236.637 141.731H310.405V59.3239L236.637 59.3239V141.731Z" fill="#E0E0E0"/>
<path d="M234.259 141.731H310.794V59.3239L234.259 59.3239V141.731Z" fill="#F0F0F0"/>
<path d="M237.535 137.939H307.652V61.9418L237.535 61.9418V137.939Z" fill="white"/>
<path d="M237.527 137.939H238.829V61.9418H237.527V137.939Z" fill="#E0E0E0"/>
<path d="M238.62 116.598V118.648H307.839V116.598H238.62Z" fill="#E0E0E0"/>
<path d="M237.527 116.591L308.745 116.591V113.15L237.527 113.15V116.591Z" fill="#F0F0F0"/>
<path d="M187 278.675C267.098 278.675 332.03 274.884 332.03 270.207C332.03 265.531 267.098 261.74 187 261.74C106.902 261.74 41.9703 265.531 41.9703 270.207C41.9703 274.884 106.902 278.675 187 278.675Z" fill="#F5F5F5"/>
<path d="M240.819 73.1693H106.994C103.97 73.1693 101.519 75.6207 101.519 78.6447V236.218C101.519 239.242 103.97 241.694 106.994 241.694H240.819C243.843 241.694 246.294 239.242 246.294 236.218V78.6447C246.294 75.6207 243.843 73.1693 240.819 73.1693Z" fill="#00843D"/>
<path opacity="0.6" d="M240.819 73.1693H106.994C103.97 73.1693 101.519 75.6207 101.519 78.6447V236.218C101.519 239.242 103.97 241.694 106.994 241.694H240.819C243.843 241.694 246.294 239.242 246.294 236.218V78.6447C246.294 75.6207 243.843 73.1693 240.819 73.1693Z" fill="white"/>
<path d="M222.844 150.46H124.976V167.215H222.844V150.46Z" fill="white"/>
<g opacity="0.4">
<path d="M133.727 160.468V160.91H130.332V156.108H133.623V156.541H130.84V158.254H133.324V158.681H130.84V160.468H133.727Z" fill="#263238"/>
<path d="M134.408 158.838H136.211V159.257H134.408V158.838Z" fill="#263238"/>
<path d="M143.249 158.815V160.91H142.763V158.86C142.763 158.112 142.382 157.708 141.731 157.708C141.562 157.701 141.394 157.73 141.238 157.794C141.081 157.858 140.941 157.955 140.826 158.079C140.712 158.203 140.625 158.351 140.574 158.511C140.522 158.672 140.506 158.842 140.527 159.01V160.91H140.033V158.86C140.033 158.112 139.652 157.708 138.993 157.708C138.825 157.701 138.656 157.73 138.5 157.794C138.344 157.858 138.203 157.955 138.089 158.079C137.974 158.203 137.888 158.351 137.836 158.511C137.784 158.672 137.768 158.842 137.789 159.01V160.91H137.295V157.297H137.767V157.955C137.908 157.735 138.104 157.555 138.337 157.434C138.569 157.314 138.829 157.256 139.091 157.267C139.355 157.245 139.62 157.305 139.849 157.438C140.078 157.572 140.26 157.774 140.37 158.015C140.519 157.774 140.731 157.577 140.982 157.446C141.233 157.314 141.515 157.253 141.798 157.267C142.001 157.252 142.205 157.282 142.395 157.356C142.585 157.43 142.756 157.545 142.895 157.694C143.034 157.842 143.138 158.02 143.2 158.214C143.261 158.408 143.278 158.614 143.249 158.815Z" fill="#263238"/>
<path d="M147.304 158.666V160.91H146.832V160.341C146.699 160.544 146.513 160.706 146.294 160.811C146.075 160.917 145.832 160.961 145.591 160.94C144.775 160.94 144.274 160.513 144.274 159.892C144.274 159.272 144.633 158.868 145.666 158.868H146.81V158.651C146.81 158.03 146.466 157.693 145.793 157.693C145.353 157.688 144.927 157.839 144.588 158.12L144.372 157.761C144.794 157.421 145.326 157.245 145.868 157.267C146.058 157.244 146.252 157.264 146.434 157.325C146.617 157.387 146.783 157.488 146.921 157.622C147.058 157.757 147.164 157.92 147.231 158.101C147.297 158.281 147.322 158.474 147.304 158.666ZM146.81 159.825V159.234H145.681C144.985 159.234 144.753 159.503 144.753 159.877C144.753 160.251 145.09 160.558 145.666 160.558C145.91 160.574 146.152 160.512 146.358 160.38C146.564 160.248 146.723 160.054 146.81 159.825Z" fill="#263238"/>
<path d="M148.515 156.16C148.516 156.114 148.526 156.068 148.545 156.026C148.564 155.984 148.59 155.945 148.624 155.914C148.657 155.882 148.696 155.857 148.739 155.84C148.782 155.823 148.828 155.815 148.874 155.816C148.92 155.815 148.965 155.823 149.007 155.839C149.049 155.856 149.087 155.88 149.12 155.911C149.153 155.943 149.179 155.98 149.197 156.021C149.215 156.063 149.225 156.107 149.226 156.152C149.227 156.199 149.219 156.246 149.201 156.289C149.184 156.333 149.158 156.372 149.126 156.406C149.093 156.439 149.054 156.466 149.011 156.484C148.968 156.502 148.921 156.512 148.874 156.512C148.828 156.513 148.781 156.504 148.738 156.487C148.694 156.47 148.654 156.444 148.621 156.411C148.588 156.378 148.561 156.339 148.543 156.296C148.525 156.253 148.515 156.207 148.515 156.16ZM148.628 157.297H149.114V160.91H148.628V157.297Z" fill="#263238"/>
<path d="M150.468 155.816H150.954V160.91H150.468V155.816Z" fill="#263238"/>
</g>
<path d="M222.844 173.349H124.976V190.104H222.844V173.349Z" fill="white"/>
<g opacity="0.4">
<path d="M134.086 180.664C134.086 181.689 133.338 182.31 132.127 182.31H130.84V183.806H130.332V179.004H132.127C133.346 179.019 134.086 179.64 134.086 180.664ZM133.578 180.664C133.578 179.916 133.077 179.46 132.082 179.46H130.81V181.861H132.082C133.077 181.861 133.578 181.42 133.578 180.664Z" fill="#263238"/>
<path d="M137.774 181.584V183.828H137.303V183.26C137.169 183.462 136.983 183.625 136.764 183.73C136.546 183.835 136.303 183.88 136.061 183.858C135.246 183.858 134.745 183.432 134.745 182.804C134.745 182.175 135.104 181.764 136.136 181.764H137.28V181.54C137.28 180.926 136.929 180.59 136.256 180.59C135.819 180.584 135.394 180.735 135.059 181.016L134.835 180.649C135.261 180.317 135.79 180.145 136.331 180.163C136.524 180.138 136.721 180.157 136.906 180.22C137.091 180.282 137.259 180.385 137.398 180.522C137.538 180.659 137.644 180.826 137.709 181.01C137.774 181.194 137.796 181.391 137.774 181.584ZM137.288 182.736V182.145H136.136C135.44 182.145 135.216 182.422 135.216 182.796C135.216 183.17 135.545 183.469 136.129 183.469C136.375 183.488 136.621 183.426 136.829 183.294C137.038 183.162 137.199 182.967 137.288 182.736Z" fill="#263238"/>
<path d="M138.597 183.41L138.814 183.028C139.191 183.292 139.64 183.433 140.1 183.432C140.781 183.432 141.065 183.2 141.065 182.841C141.065 181.899 138.724 182.639 138.724 181.218C138.724 180.627 139.233 180.186 140.153 180.186C140.602 180.182 141.043 180.298 141.432 180.522L141.215 180.911C140.9 180.704 140.53 180.597 140.153 180.605C139.502 180.605 139.21 180.859 139.21 181.203C139.21 182.175 141.552 181.442 141.552 182.826C141.552 183.455 141.005 183.858 140.056 183.858C139.533 183.872 139.021 183.714 138.597 183.41Z" fill="#263238"/>
<path d="M141.948 183.41L142.172 183.028C142.545 183.295 142.993 183.436 143.451 183.432C144.14 183.432 144.416 183.2 144.416 182.841C144.416 181.899 142.083 182.639 142.083 181.218C142.083 180.627 142.591 180.186 143.504 180.186C143.953 180.18 144.395 180.296 144.783 180.522L144.573 180.911C144.256 180.704 143.883 180.597 143.504 180.605C142.853 180.605 142.569 180.859 142.569 181.203C142.569 182.175 144.91 181.442 144.91 182.826C144.91 183.455 144.357 183.858 143.414 183.858C142.89 183.871 142.375 183.713 141.948 183.41Z" fill="#263238"/>
<path d="M151.029 180.216L149.667 183.821H149.211L148.104 180.866L146.967 183.821H146.511L145.112 180.216H145.576L146.713 183.282L147.872 180.216H148.291L149.443 183.282L150.587 180.216H151.029Z" fill="#263238"/>
<path d="M151.298 182.018C151.298 181.654 151.406 181.299 151.608 180.996C151.81 180.693 152.098 180.458 152.434 180.318C152.77 180.179 153.14 180.143 153.497 180.214C153.854 180.285 154.182 180.46 154.439 180.717C154.697 180.975 154.872 181.302 154.943 181.659C155.014 182.016 154.977 182.386 154.838 182.722C154.699 183.059 154.463 183.346 154.16 183.548C153.858 183.75 153.502 183.858 153.138 183.858C152.894 183.867 152.651 183.825 152.424 183.735C152.197 183.646 151.991 183.511 151.818 183.338C151.646 183.165 151.511 182.959 151.421 182.732C151.332 182.505 151.29 182.262 151.298 182.018ZM154.477 182.018C154.465 181.755 154.376 181.5 154.221 181.287C154.066 181.073 153.851 180.91 153.604 180.817C153.357 180.725 153.088 180.707 152.83 180.766C152.573 180.825 152.339 180.959 152.157 181.15C151.975 181.341 151.853 181.581 151.806 181.841C151.76 182.101 151.791 182.369 151.896 182.611C152 182.854 152.174 183.06 152.395 183.205C152.616 183.349 152.874 183.426 153.138 183.425C153.321 183.428 153.502 183.394 153.67 183.323C153.839 183.253 153.991 183.148 154.117 183.016C154.243 182.884 154.34 182.727 154.402 182.555C154.464 182.383 154.489 182.2 154.477 182.018Z" fill="#263238"/>
<path d="M157.783 180.186V180.657H157.663C157.492 180.649 157.322 180.678 157.163 180.744C157.005 180.809 156.863 180.908 156.747 181.035C156.631 181.161 156.545 181.311 156.494 181.475C156.443 181.638 156.428 181.811 156.452 181.981V183.821H155.966V180.216H156.429V180.919C156.555 180.675 156.752 180.475 156.993 180.344C157.235 180.213 157.51 180.158 157.783 180.186Z" fill="#263238"/>
<path d="M161.92 178.772V183.858H161.456V183.148C161.311 183.384 161.105 183.578 160.861 183.709C160.617 183.841 160.342 183.905 160.065 183.896C159.598 183.866 159.16 183.66 158.84 183.318C158.52 182.977 158.342 182.527 158.342 182.059C158.342 181.592 158.52 181.142 158.84 180.8C159.16 180.459 159.598 180.253 160.065 180.223C160.338 180.217 160.609 180.283 160.849 180.414C161.089 180.545 161.291 180.737 161.433 180.971V178.772H161.92ZM161.441 182.056C161.429 181.792 161.34 181.537 161.185 181.324C161.03 181.11 160.815 180.947 160.568 180.855C160.321 180.762 160.052 180.744 159.794 180.803C159.537 180.862 159.303 180.996 159.121 181.187C158.939 181.378 158.817 181.619 158.77 181.879C158.724 182.139 158.755 182.406 158.86 182.649C158.964 182.891 159.138 183.098 159.359 183.242C159.579 183.387 159.838 183.463 160.102 183.462C160.288 183.466 160.473 183.431 160.644 183.358C160.815 183.285 160.969 183.177 161.096 183.041C161.222 182.905 161.318 182.743 161.378 182.567C161.437 182.39 161.459 182.203 161.441 182.018V182.056Z" fill="#263238"/>
</g>
<path opacity="0.2" d="M222.844 207.196H124.976V223.951H222.844V207.196Z" fill="black"/>
<g opacity="0.5">
<path d="M148.777 199.499H147.176L146.832 200.247H146.518L147.827 197.382H148.126L149.435 200.247H149.121L148.777 199.499ZM148.665 199.252L147.977 197.711L147.289 199.252H148.665Z" fill="black"/>
<path d="M149.854 197.225H150.146V200.262H149.854V197.225Z" fill="black"/>
<path d="M152.046 198.093V198.377H151.971C151.867 198.368 151.762 198.383 151.664 198.42C151.566 198.458 151.478 198.517 151.406 198.593C151.334 198.669 151.28 198.761 151.248 198.86C151.217 198.96 151.208 199.066 151.223 199.17V200.269H150.931V198.115H151.216V198.534C151.291 198.383 151.411 198.259 151.56 198.18C151.709 198.101 151.879 198.07 152.046 198.093Z" fill="black"/>
<path d="M154.425 199.275H152.592C152.598 199.38 152.624 199.482 152.67 199.577C152.716 199.671 152.78 199.756 152.858 199.825C152.937 199.895 153.029 199.948 153.128 199.982C153.227 200.016 153.332 200.03 153.437 200.023C153.562 200.027 153.685 200.004 153.8 199.957C153.915 199.909 154.018 199.837 154.103 199.746L154.26 199.933C154.105 200.095 153.906 200.208 153.688 200.258C153.469 200.307 153.241 200.291 153.031 200.211C152.822 200.131 152.641 199.991 152.511 199.809C152.381 199.626 152.307 199.409 152.3 199.185C152.293 199.043 152.315 198.901 152.365 198.767C152.415 198.634 152.492 198.513 152.591 198.41C152.69 198.308 152.808 198.227 152.94 198.172C153.071 198.118 153.213 198.091 153.355 198.093C153.497 198.089 153.639 198.116 153.77 198.17C153.902 198.224 154.021 198.305 154.119 198.408C154.218 198.511 154.294 198.633 154.343 198.767C154.391 198.9 154.412 199.043 154.402 199.185C154.402 199.185 154.425 199.245 154.425 199.275ZM152.622 199.058H154.118C154.118 198.859 154.039 198.669 153.899 198.529C153.759 198.389 153.568 198.31 153.37 198.31C153.172 198.31 152.981 198.389 152.841 198.529C152.701 198.669 152.622 198.859 152.622 199.058Z" fill="black"/>
<path d="M156.586 198.968V200.299H156.332V199.963C156.253 200.086 156.141 200.185 156.009 200.248C155.877 200.311 155.73 200.337 155.584 200.322C155.098 200.322 154.836 200.067 154.836 199.693C154.836 199.319 155.045 199.08 155.666 199.08H156.332V198.953C156.332 198.586 156.123 198.384 155.719 198.384C155.447 198.374 155.18 198.465 154.971 198.639L154.843 198.422C155.091 198.224 155.402 198.121 155.719 198.13C155.834 198.11 155.953 198.118 156.065 198.153C156.178 198.187 156.28 198.248 156.365 198.329C156.449 198.411 156.513 198.511 156.552 198.622C156.59 198.733 156.602 198.852 156.586 198.968ZM156.302 199.656V199.297H155.621C155.203 199.297 155.068 199.462 155.068 199.686C155.068 199.91 155.27 200.09 155.614 200.09C155.769 200.102 155.923 200.062 156.053 199.977C156.183 199.891 156.281 199.766 156.332 199.619L156.302 199.656Z" fill="black"/>
<path d="M159.324 197.225V200.262H159.047V199.836C158.962 199.978 158.84 200.096 158.694 200.175C158.548 200.254 158.383 200.292 158.217 200.284C157.942 200.262 157.686 200.136 157.499 199.933C157.312 199.73 157.208 199.465 157.208 199.189C157.208 198.913 157.312 198.647 157.499 198.444C157.686 198.241 157.942 198.115 158.217 198.093C158.379 198.088 158.539 198.125 158.683 198.2C158.827 198.274 158.95 198.384 159.04 198.519V197.225H159.324ZM159.04 199.185C159.032 199.028 158.979 198.877 158.887 198.751C158.795 198.624 158.667 198.527 158.521 198.473C158.374 198.418 158.214 198.407 158.062 198.442C157.909 198.477 157.77 198.556 157.662 198.669C157.553 198.783 157.481 198.925 157.453 199.079C157.425 199.233 157.443 199.392 157.504 199.537C157.566 199.681 157.668 199.803 157.799 199.89C157.93 199.976 158.083 200.022 158.239 200.023C158.351 200.029 158.462 200.012 158.567 199.972C158.671 199.932 158.765 199.871 158.844 199.791C158.923 199.712 158.983 199.617 159.022 199.512C159.061 199.408 159.077 199.296 159.07 199.185H159.04Z" fill="black"/>
<path d="M161.979 198.108L160.902 200.524C160.723 200.943 160.491 201.077 160.154 201.077C159.961 201.083 159.774 201.013 159.631 200.883L159.765 200.666C159.87 200.771 160.013 200.83 160.162 200.83C160.356 200.83 160.483 200.741 160.611 200.464L160.7 200.262L159.735 198.108H160.072L160.887 199.94L161.695 198.108H161.979Z" fill="black"/>
<path d="M165.091 198.968V200.299H164.814V199.963C164.735 200.086 164.623 200.185 164.491 200.248C164.359 200.311 164.212 200.337 164.066 200.322C163.58 200.322 163.318 200.067 163.318 199.693C163.318 199.319 163.528 199.08 164.149 199.08H164.829V198.953C164.829 198.586 164.627 198.384 164.223 198.384C163.951 198.374 163.685 198.465 163.475 198.639L163.341 198.422C163.592 198.224 163.904 198.121 164.223 198.13C164.339 198.11 164.458 198.118 164.57 198.153C164.682 198.187 164.785 198.248 164.869 198.329C164.954 198.411 165.018 198.511 165.056 198.622C165.095 198.733 165.107 198.852 165.091 198.968ZM164.799 199.656V199.297H164.126C163.707 199.297 163.573 199.462 163.573 199.686C163.573 199.91 163.775 200.09 164.119 200.09C164.268 200.096 164.415 200.053 164.538 199.968C164.661 199.883 164.752 199.76 164.799 199.619V199.656Z" fill="black"/>
<path d="M170.544 199.013V200.262H170.26V199.043C170.26 198.586 170.028 198.355 169.639 198.355C169.539 198.347 169.438 198.361 169.344 198.395C169.249 198.43 169.164 198.485 169.093 198.556C169.021 198.627 168.967 198.713 168.932 198.807C168.897 198.902 168.883 199.002 168.891 199.103V200.232H168.607V199.043C168.607 198.586 168.375 198.355 167.978 198.355C167.878 198.347 167.777 198.361 167.683 198.395C167.589 198.43 167.503 198.485 167.432 198.556C167.361 198.627 167.306 198.713 167.271 198.807C167.236 198.902 167.223 199.002 167.23 199.103V200.232H166.939V198.078H167.215V198.474C167.298 198.34 167.415 198.231 167.555 198.159C167.695 198.086 167.851 198.053 168.008 198.063C168.165 198.051 168.322 198.088 168.456 198.17C168.59 198.252 168.695 198.374 168.756 198.519C168.843 198.373 168.969 198.253 169.119 198.172C169.269 198.092 169.439 198.054 169.609 198.063C169.738 198.04 169.871 198.049 169.996 198.088C170.121 198.128 170.235 198.198 170.327 198.291C170.419 198.385 170.487 198.5 170.525 198.625C170.563 198.751 170.569 198.884 170.544 199.013Z" fill="black"/>
<path d="M173.192 199.275H171.389C171.405 199.486 171.503 199.684 171.662 199.823C171.822 199.963 172.03 200.035 172.242 200.023C172.365 200.027 172.488 200.005 172.602 199.957C172.715 199.909 172.817 199.837 172.9 199.746L173.065 199.933C172.96 200.048 172.831 200.138 172.688 200.199C172.545 200.26 172.39 200.289 172.234 200.284C172.086 200.294 171.938 200.272 171.798 200.221C171.659 200.169 171.532 200.089 171.425 199.986C171.319 199.882 171.236 199.757 171.18 199.619C171.125 199.481 171.099 199.333 171.105 199.185C171.105 198.907 171.215 198.641 171.412 198.444C171.608 198.248 171.874 198.138 172.152 198.138C172.43 198.138 172.696 198.248 172.893 198.444C173.089 198.641 173.199 198.907 173.199 199.185C173.199 199.185 173.192 199.245 173.192 199.275ZM171.389 199.058H172.923C172.923 198.854 172.842 198.659 172.698 198.516C172.554 198.372 172.359 198.291 172.156 198.291C171.953 198.291 171.758 198.372 171.614 198.516C171.47 198.659 171.389 198.854 171.389 199.058Z" fill="black"/>
<path d="M177.351 199.013V200.262H177.059V199.043C177.059 198.586 176.835 198.355 176.446 198.355C176.345 198.345 176.244 198.358 176.149 198.393C176.054 198.427 175.968 198.482 175.896 198.553C175.825 198.625 175.77 198.711 175.736 198.806C175.702 198.901 175.689 199.002 175.698 199.103V200.232H175.406V199.043C175.406 198.586 175.182 198.355 174.785 198.355C174.685 198.345 174.583 198.358 174.488 198.393C174.393 198.427 174.307 198.482 174.236 198.553C174.164 198.625 174.11 198.711 174.075 198.806C174.041 198.901 174.028 199.002 174.037 199.103V200.232H173.745V198.078H174.022V198.474C174.104 198.34 174.221 198.23 174.361 198.158C174.501 198.085 174.658 198.052 174.815 198.063C174.972 198.051 175.129 198.088 175.263 198.17C175.397 198.252 175.502 198.374 175.563 198.519C175.65 198.373 175.776 198.253 175.926 198.172C176.076 198.092 176.246 198.054 176.416 198.063C176.545 198.04 176.678 198.049 176.803 198.088C176.928 198.128 177.042 198.198 177.134 198.291C177.226 198.385 177.294 198.5 177.331 198.625C177.369 198.751 177.376 198.884 177.351 199.013Z" fill="black"/>
<path d="M180.328 199.185C180.335 199.329 180.313 199.472 180.262 199.607C180.211 199.742 180.133 199.864 180.033 199.968C179.932 200.071 179.812 200.152 179.678 200.207C179.545 200.261 179.402 200.288 179.258 200.284C179.092 200.292 178.927 200.254 178.781 200.175C178.635 200.096 178.513 199.978 178.428 199.836V200.262H178.144V197.225H178.435V198.519C178.525 198.384 178.647 198.273 178.791 198.199C178.935 198.124 179.096 198.088 179.258 198.093C179.402 198.088 179.545 198.114 179.678 198.168C179.811 198.221 179.932 198.302 180.032 198.404C180.133 198.507 180.211 198.629 180.262 198.764C180.313 198.898 180.335 199.041 180.328 199.185ZM180.036 199.185C180.029 199.028 179.976 198.877 179.883 198.751C179.791 198.624 179.664 198.527 179.517 198.473C179.37 198.418 179.211 198.407 179.058 198.442C178.905 198.477 178.766 198.556 178.658 198.669C178.55 198.783 178.477 198.925 178.449 199.079C178.421 199.233 178.439 199.392 178.501 199.537C178.562 199.681 178.665 199.803 178.795 199.89C178.926 199.976 179.079 200.022 179.236 200.023C179.345 200.025 179.453 200.005 179.554 199.963C179.654 199.921 179.745 199.859 179.82 199.78C179.896 199.701 179.954 199.608 179.991 199.505C180.028 199.403 180.043 199.294 180.036 199.185Z" fill="black"/>
<path d="M182.804 199.275H181.016C181.022 199.379 181.048 199.482 181.094 199.577C181.14 199.671 181.204 199.756 181.282 199.825C181.361 199.895 181.453 199.948 181.552 199.982C181.651 200.016 181.757 200.03 181.861 200.023C181.986 200.022 182.108 199.995 182.221 199.942C182.333 199.889 182.433 199.812 182.512 199.716L182.677 199.903C182.522 200.065 182.323 200.178 182.104 200.228C181.886 200.277 181.657 200.261 181.448 200.181C181.238 200.101 181.057 199.961 180.927 199.778C180.797 199.596 180.724 199.379 180.717 199.155C180.71 199.013 180.732 198.871 180.782 198.737C180.832 198.604 180.908 198.483 181.007 198.38C181.106 198.278 181.225 198.197 181.357 198.142C181.488 198.088 181.629 198.061 181.772 198.063C181.914 198.059 182.055 198.086 182.186 198.14C182.317 198.194 182.436 198.275 182.534 198.378C182.631 198.481 182.707 198.603 182.755 198.737C182.802 198.871 182.822 199.013 182.811 199.155L182.804 199.275ZM181.001 199.058H182.497C182.497 198.859 182.418 198.669 182.278 198.529C182.138 198.388 181.947 198.31 181.749 198.31C181.551 198.31 181.36 198.388 181.22 198.529C181.08 198.669 181.001 198.859 181.001 199.058Z" fill="black"/>
<path d="M184.487 198.093V198.377H184.419C184.315 198.368 184.21 198.383 184.112 198.42C184.014 198.457 183.926 198.517 183.854 198.593C183.782 198.669 183.728 198.761 183.697 198.86C183.665 198.96 183.656 199.066 183.671 199.17V200.269H183.38V198.115H183.656V198.534C183.732 198.384 183.853 198.261 184.002 198.182C184.15 198.103 184.32 198.072 184.487 198.093Z" fill="black"/>
<path d="M186.372 198.13C186.372 197.831 186.132 197.629 185.713 197.629C185.566 197.621 185.419 197.646 185.283 197.703C185.147 197.76 185.025 197.847 184.928 197.958L184.711 197.794C184.839 197.65 184.997 197.537 185.175 197.463C185.352 197.389 185.544 197.356 185.736 197.367C186.312 197.367 186.678 197.644 186.678 198.115C186.678 198.811 185.93 198.863 185.93 199.432H185.624C185.624 198.729 186.372 198.661 186.372 198.13ZM185.564 200.067C185.573 200.018 185.6 199.973 185.639 199.941C185.677 199.908 185.726 199.891 185.777 199.891C185.828 199.891 185.877 199.908 185.916 199.941C185.954 199.973 185.981 200.018 185.99 200.067C185.996 200.099 185.995 200.131 185.987 200.162C185.979 200.193 185.964 200.222 185.944 200.246C185.924 200.271 185.898 200.29 185.869 200.304C185.84 200.317 185.809 200.325 185.777 200.325C185.745 200.325 185.714 200.317 185.685 200.304C185.656 200.29 185.63 200.271 185.61 200.246C185.59 200.222 185.575 200.193 185.567 200.162C185.559 200.131 185.558 200.099 185.564 200.067Z" fill="black"/>
<path d="M188.399 197.397H189.064V199.716H190.501V200.254H188.399V197.397Z" fill="black"/>
<path d="M190.65 199.162C190.635 198.92 190.693 198.679 190.817 198.47C190.941 198.261 191.124 198.094 191.344 197.991C191.564 197.888 191.809 197.853 192.049 197.891C192.289 197.929 192.512 198.038 192.689 198.204C192.866 198.37 192.989 198.585 193.042 198.822C193.095 199.059 193.076 199.307 192.987 199.532C192.898 199.758 192.743 199.952 192.542 200.089C192.342 200.226 192.105 200.299 191.862 200.299C191.707 200.31 191.551 200.288 191.404 200.235C191.257 200.183 191.123 200.101 191.009 199.994C190.896 199.887 190.805 199.759 190.743 199.616C190.682 199.472 190.65 199.318 190.65 199.162ZM192.423 199.162C192.414 199.054 192.374 198.95 192.307 198.864C192.241 198.778 192.15 198.713 192.047 198.677C191.944 198.642 191.833 198.637 191.728 198.663C191.622 198.69 191.526 198.746 191.452 198.826C191.378 198.906 191.329 199.006 191.311 199.113C191.292 199.221 191.306 199.331 191.349 199.431C191.393 199.531 191.464 199.616 191.556 199.676C191.647 199.736 191.753 199.768 191.862 199.768C191.94 199.77 192.017 199.755 192.089 199.724C192.161 199.693 192.225 199.648 192.278 199.591C192.331 199.534 192.371 199.466 192.396 199.392C192.421 199.318 192.43 199.24 192.423 199.162Z" fill="black"/>
<path d="M195.774 198.055V199.895C195.795 200.061 195.776 200.229 195.721 200.386C195.666 200.543 195.575 200.685 195.455 200.801C195.335 200.917 195.19 201.004 195.032 201.054C194.873 201.105 194.704 201.118 194.54 201.092C194.155 201.107 193.775 201 193.455 200.786L193.71 200.329C193.928 200.486 194.189 200.572 194.458 200.576C194.906 200.576 195.108 200.374 195.108 199.978V199.881C195.019 199.974 194.91 200.046 194.79 200.094C194.67 200.142 194.542 200.163 194.413 200.157C194.265 200.17 194.117 200.151 193.977 200.103C193.837 200.055 193.708 199.979 193.599 199.879C193.49 199.779 193.403 199.657 193.344 199.521C193.284 199.386 193.254 199.239 193.254 199.091C193.254 198.943 193.284 198.797 193.344 198.661C193.403 198.526 193.49 198.404 193.599 198.304C193.708 198.204 193.837 198.127 193.977 198.079C194.117 198.031 194.265 198.013 194.413 198.025C194.553 198.014 194.695 198.037 194.825 198.092C194.955 198.146 195.07 198.231 195.161 198.34V198.055H195.774ZM195.146 199.095C195.148 199.02 195.135 198.946 195.106 198.876C195.078 198.807 195.035 198.744 194.98 198.693C194.926 198.641 194.861 198.602 194.79 198.577C194.72 198.552 194.644 198.543 194.57 198.549C194.493 198.54 194.416 198.547 194.342 198.571C194.269 198.594 194.201 198.632 194.143 198.683C194.085 198.735 194.039 198.797 194.008 198.868C193.976 198.938 193.96 199.014 193.96 199.091C193.96 199.168 193.976 199.245 194.008 199.315C194.039 199.385 194.085 199.448 194.143 199.499C194.201 199.551 194.269 199.589 194.342 199.612C194.416 199.635 194.493 199.643 194.57 199.634C194.644 199.64 194.718 199.631 194.789 199.606C194.859 199.582 194.923 199.543 194.977 199.492C195.032 199.442 195.075 199.38 195.104 199.312C195.133 199.243 195.147 199.169 195.146 199.095Z" fill="black"/>
<path d="M197.472 197.397C197.473 197.347 197.484 197.298 197.505 197.252C197.525 197.206 197.555 197.165 197.592 197.132C197.63 197.098 197.673 197.072 197.721 197.056C197.768 197.04 197.818 197.034 197.868 197.038C197.917 197.033 197.967 197.038 198.014 197.053C198.061 197.067 198.104 197.092 198.141 197.124C198.179 197.156 198.209 197.196 198.23 197.24C198.251 197.285 198.263 197.333 198.265 197.382C198.265 197.487 198.223 197.588 198.149 197.663C198.074 197.737 197.974 197.779 197.868 197.779C197.763 197.779 197.662 197.737 197.588 197.663C197.514 197.588 197.472 197.487 197.472 197.382V197.397ZM197.547 198.055H198.183V200.299H197.547V198.055Z" fill="black"/>
<path d="M201.018 198.968V200.232H200.382V199.073C200.382 198.714 200.217 198.549 199.933 198.549C199.649 198.549 199.402 198.736 199.402 199.14V200.232H198.766V197.988H199.379V198.25C199.476 198.15 199.593 198.073 199.722 198.022C199.851 197.972 199.989 197.95 200.127 197.958C200.257 197.952 200.386 197.974 200.505 198.025C200.624 198.075 200.73 198.151 200.816 198.248C200.901 198.345 200.964 198.461 200.999 198.585C201.034 198.71 201.04 198.841 201.018 198.968Z" fill="black"/>
</g>
<path d="M222.844 206.171H124.976V222.926H222.844V206.171Z" fill="#00843D"/>
<path d="M161.269 217.152L160.072 215.424H159.713H158.292V217.167H157.469V211.43H159.713C161.209 211.43 162.099 212.178 162.099 213.434C162.118 213.832 162.005 214.225 161.778 214.553C161.551 214.88 161.222 215.123 160.842 215.244L162.204 217.167L161.269 217.152ZM161.269 213.412C161.269 212.589 160.723 212.125 159.668 212.125H158.277V214.706H159.668C160.7 214.713 161.246 214.235 161.246 213.419L161.269 213.412Z" fill="white"/>
<path d="M167.193 215.244H163.67C163.725 215.614 163.917 215.95 164.208 216.186C164.499 216.421 164.867 216.539 165.241 216.516C165.476 216.524 165.709 216.482 165.926 216.392C166.143 216.301 166.338 216.165 166.497 215.992L166.931 216.501C166.611 216.826 166.204 217.052 165.759 217.151C165.314 217.25 164.849 217.219 164.421 217.061C163.993 216.903 163.62 216.625 163.346 216.261C163.072 215.896 162.909 215.46 162.877 215.005C162.861 214.711 162.907 214.418 163.01 214.142C163.114 213.867 163.273 213.616 163.478 213.405C163.683 213.194 163.93 213.028 164.202 212.918C164.475 212.807 164.767 212.753 165.061 212.761C165.354 212.753 165.645 212.806 165.915 212.918C166.186 213.029 166.43 213.195 166.632 213.407C166.835 213.618 166.99 213.87 167.089 214.145C167.189 214.42 167.229 214.713 167.208 215.005C167.208 215.072 167.2 215.17 167.193 215.244ZM163.67 214.676H166.452C166.417 214.332 166.255 214.013 165.998 213.781C165.741 213.55 165.407 213.422 165.061 213.422C164.715 213.422 164.382 213.55 164.125 213.781C163.868 214.013 163.706 214.332 163.67 214.676Z" fill="white"/>
<path d="M172.459 212.813V216.553C172.459 218.087 171.673 218.797 170.215 218.797C169.471 218.829 168.738 218.602 168.143 218.154L168.517 217.548C168.996 217.92 169.586 218.118 170.192 218.109C171.217 218.109 171.688 217.638 171.688 216.651V216.307C171.495 216.529 171.254 216.705 170.983 216.821C170.713 216.938 170.419 216.992 170.125 216.98C169.568 216.98 169.033 216.758 168.639 216.364C168.245 215.97 168.023 215.435 168.023 214.878C168.023 214.32 168.245 213.786 168.639 213.392C169.033 212.998 169.568 212.776 170.125 212.776C170.433 212.767 170.739 212.829 171.018 212.959C171.297 213.089 171.542 213.283 171.733 213.524V212.851L172.459 212.813ZM171.711 214.87C171.727 214.572 171.654 214.275 171.5 214.018C171.346 213.762 171.118 213.557 170.847 213.431C170.575 213.305 170.272 213.264 169.977 213.312C169.681 213.36 169.407 213.495 169.19 213.701C168.972 213.906 168.821 214.173 168.757 214.465C168.692 214.757 168.716 215.062 168.827 215.34C168.937 215.618 169.128 215.857 169.376 216.025C169.623 216.194 169.916 216.284 170.215 216.284C170.406 216.296 170.598 216.267 170.778 216.201C170.958 216.135 171.122 216.032 171.261 215.899C171.399 215.767 171.508 215.607 171.582 215.43C171.656 215.253 171.692 215.062 171.688 214.87H171.711Z" fill="white"/>
<path d="M173.82 211.467C173.821 211.398 173.836 211.33 173.863 211.267C173.89 211.204 173.93 211.147 173.979 211.099C174.028 211.051 174.086 211.013 174.15 210.988C174.214 210.962 174.283 210.95 174.351 210.951C174.424 210.942 174.497 210.949 174.567 210.971C174.637 210.992 174.701 211.029 174.756 211.077C174.81 211.125 174.854 211.185 174.884 211.251C174.914 211.318 174.929 211.39 174.929 211.463C174.929 211.536 174.914 211.608 174.884 211.675C174.854 211.742 174.81 211.801 174.756 211.85C174.701 211.898 174.637 211.934 174.567 211.956C174.497 211.978 174.424 211.984 174.351 211.976C174.283 211.978 174.215 211.966 174.151 211.941C174.087 211.917 174.029 211.88 173.979 211.832C173.93 211.785 173.89 211.728 173.863 211.666C173.836 211.603 173.821 211.535 173.82 211.467ZM173.962 212.813H174.748V217.152H173.962V212.813Z" fill="white"/>
<path d="M175.698 216.696L176.027 216.075C176.472 216.364 176.992 216.52 177.523 216.524C178.271 216.524 178.555 216.299 178.555 215.933C178.555 214.96 175.81 215.805 175.81 214.07C175.81 213.322 176.506 212.769 177.62 212.769C178.172 212.76 178.716 212.897 179.198 213.165L178.862 213.786C178.488 213.551 178.054 213.431 177.613 213.442C176.924 213.442 176.588 213.696 176.588 214.04C176.588 215.065 179.34 214.227 179.34 215.918C179.34 216.666 178.592 217.204 177.463 217.204C176.837 217.213 176.223 217.036 175.698 216.696Z" fill="white"/>
<path d="M182.796 216.92C182.524 217.128 182.189 217.236 181.846 217.227C181.662 217.248 181.475 217.227 181.299 217.166C181.124 217.106 180.964 217.006 180.832 216.876C180.7 216.745 180.599 216.587 180.536 216.412C180.473 216.237 180.451 216.05 180.47 215.865V213.479H179.722V212.836H180.47V211.886H181.218V212.836H182.512V213.479H181.263V215.835C181.245 215.932 181.25 216.031 181.277 216.125C181.304 216.219 181.352 216.305 181.418 216.378C181.484 216.45 181.566 216.506 181.657 216.542C181.748 216.578 181.846 216.592 181.944 216.583C182.165 216.585 182.38 216.514 182.557 216.381L182.796 216.92Z" fill="white"/>
<path d="M187.509 215.244H184.008C184.064 215.616 184.257 215.953 184.549 216.188C184.841 216.424 185.212 216.541 185.586 216.516C185.82 216.525 186.053 216.483 186.269 216.392C186.484 216.302 186.678 216.165 186.835 215.992L187.269 216.501C186.95 216.827 186.543 217.053 186.098 217.153C185.654 217.253 185.189 217.222 184.761 217.064C184.334 216.906 183.961 216.627 183.688 216.262C183.415 215.897 183.253 215.46 183.223 215.005C183.207 214.711 183.252 214.418 183.356 214.142C183.459 213.867 183.619 213.616 183.824 213.405C184.029 213.195 184.275 213.028 184.548 212.918C184.82 212.807 185.113 212.753 185.407 212.761C185.699 212.754 185.989 212.808 186.259 212.92C186.529 213.032 186.773 213.198 186.975 213.409C187.177 213.621 187.333 213.872 187.433 214.146C187.532 214.421 187.573 214.714 187.554 215.005C187.546 215.086 187.531 215.166 187.509 215.244ZM184.008 214.676H186.798C186.755 214.336 186.589 214.024 186.333 213.798C186.076 213.572 185.745 213.447 185.403 213.447C185.061 213.447 184.73 213.572 184.473 213.798C184.217 214.024 184.051 214.336 184.008 214.676Z" fill="white"/>
<path d="M190.957 212.769V213.517H190.777C190.583 213.503 190.388 213.533 190.207 213.605C190.026 213.678 189.863 213.79 189.732 213.934C189.6 214.078 189.502 214.249 189.447 214.436C189.391 214.623 189.378 214.82 189.409 215.013V217.174H188.623V212.836H189.371V213.584C189.529 213.31 189.763 213.087 190.044 212.943C190.325 212.798 190.642 212.738 190.957 212.769Z" fill="white"/>
<g opacity="0.6">
<path d="M156.773 91.7123L157.11 91.0092C157.69 91.4958 158.424 91.7608 159.182 91.7572C160.266 91.7572 160.73 91.3383 160.73 90.7923C160.73 89.2963 156.93 90.2238 156.93 87.8975C156.93 86.9251 157.678 86.1023 159.331 86.1023C160.044 86.0907 160.744 86.2828 161.351 86.6558L161.052 87.4038C160.538 87.0749 159.942 86.8985 159.331 86.8952C158.262 86.8952 157.835 87.344 157.835 87.89C157.835 89.386 161.643 88.4585 161.643 90.7698C161.643 91.7273 160.895 92.5501 159.212 92.5501C158.325 92.5687 157.461 92.2718 156.773 91.7123Z" fill="#263238"/>
<path d="M162.645 86.1995C162.646 86.1242 162.662 86.0499 162.692 85.9808C162.722 85.9117 162.765 85.8492 162.82 85.797C162.874 85.7448 162.938 85.7039 163.008 85.6767C163.078 85.6495 163.153 85.6365 163.229 85.6385C163.303 85.6355 163.377 85.6473 163.447 85.6732C163.516 85.6991 163.58 85.7387 163.635 85.7895C163.689 85.8403 163.732 85.9014 163.763 85.9692C163.793 86.037 163.81 86.1102 163.812 86.1846C163.812 86.3393 163.751 86.4877 163.641 86.5971C163.532 86.7065 163.383 86.768 163.229 86.768C163.074 86.768 162.925 86.7065 162.816 86.5971C162.707 86.4877 162.645 86.3393 162.645 86.1846V86.1995ZM162.795 87.6955H163.662V92.4528H162.795V87.6955Z" fill="#263238"/>
<path d="M169.848 87.6731V91.7796C169.848 93.4626 168.996 94.2255 167.387 94.2255C166.58 94.2511 165.789 94.0004 165.143 93.5149L165.555 92.8492C166.076 93.2613 166.723 93.4807 167.387 93.4701C168.509 93.4701 169.018 92.9465 169.018 91.8694V91.4954C168.806 91.7398 168.543 91.9339 168.246 92.0633C167.95 92.1927 167.628 92.2542 167.305 92.2434C166.992 92.2612 166.679 92.215 166.384 92.1074C166.089 91.9999 165.82 91.8334 165.592 91.6181C165.364 91.4027 165.182 91.1431 165.058 90.8551C164.934 90.5671 164.87 90.2568 164.87 89.9432C164.87 89.6296 164.934 89.3194 165.058 89.0314C165.182 88.7434 165.364 88.4838 165.592 88.2684C165.82 88.0531 166.089 87.8866 166.384 87.779C166.679 87.6715 166.992 87.6253 167.305 87.6431C167.636 87.626 167.966 87.6844 168.271 87.814C168.575 87.9436 168.846 88.141 169.063 88.3911V87.6431L169.848 87.6731ZM169.011 89.9171C169.027 89.5901 168.945 89.2657 168.775 88.9857C168.606 88.7057 168.356 88.483 168.058 88.3463C167.761 88.2096 167.429 88.1652 167.106 88.2188C166.783 88.2724 166.484 88.4215 166.246 88.647C166.009 88.8725 165.845 89.1639 165.775 89.4837C165.704 89.8035 165.732 90.137 165.853 90.4412C165.974 90.7453 166.184 91.0062 166.454 91.1901C166.725 91.374 167.045 91.4725 167.372 91.4729C167.587 91.4917 167.802 91.4655 168.005 91.3961C168.209 91.3266 168.395 91.2154 168.553 91.0696C168.711 90.9238 168.836 90.7466 168.922 90.5494C169.007 90.3522 169.05 90.1394 169.048 89.9245L169.011 89.9171Z" fill="#263238"/>
<path d="M176.012 89.6927V92.4304H175.144V89.76C175.144 88.825 174.68 88.3687 173.865 88.3687C173.658 88.3552 173.45 88.3874 173.257 88.4631C173.064 88.5389 172.89 88.6562 172.747 88.8069C172.604 88.9575 172.496 89.1378 172.431 89.3348C172.366 89.5319 172.345 89.7409 172.369 89.947V92.4004H171.509V87.6432H172.339V88.3912C172.543 88.1377 172.806 87.9373 173.104 87.8071C173.402 87.6768 173.727 87.6206 174.052 87.6432C174.322 87.625 174.592 87.6664 174.845 87.7643C175.097 87.8622 175.324 88.0142 175.511 88.2097C175.698 88.4052 175.84 88.6393 175.926 88.8956C176.013 89.1518 176.042 89.4239 176.012 89.6927Z" fill="#263238"/>
<path d="M184.457 87.6731V92.4304H183.641V91.6824C183.452 91.9271 183.206 92.1228 182.925 92.253C182.644 92.3831 182.335 92.444 182.026 92.4304C181.748 92.459 181.467 92.4249 181.203 92.3306C180.94 92.2362 180.701 92.0841 180.505 91.8853C180.308 91.6865 180.159 91.4461 180.067 91.1819C179.976 90.9176 179.945 90.6362 179.976 90.3584V87.6207H180.836V90.2612C180.836 91.1887 181.308 91.6599 182.123 91.6599C182.33 91.6748 182.539 91.6435 182.733 91.5683C182.927 91.493 183.101 91.3757 183.244 91.2247C183.388 91.0737 183.495 90.8929 183.56 90.6953C183.625 90.4976 183.645 90.288 183.619 90.0816V87.6207L184.457 87.6731Z" fill="#263238"/>
<path d="M191.024 90.0517C191.041 90.3729 190.991 90.694 190.877 90.9946C190.762 91.2952 190.587 91.5687 190.361 91.7975C190.135 92.0263 189.863 92.2054 189.564 92.3234C189.265 92.4414 188.945 92.4956 188.623 92.4827C188.307 92.495 187.993 92.4339 187.705 92.3041C187.417 92.1743 187.163 91.9794 186.963 91.7347V94.1882H186.102V87.6955H186.925V88.4435C187.123 88.1831 187.38 87.9743 187.676 87.8349C187.972 87.6956 188.297 87.6298 188.623 87.6432C188.943 87.6293 189.262 87.6822 189.56 87.7984C189.858 87.9147 190.129 88.0917 190.354 88.3183C190.58 88.5449 190.757 88.816 190.872 89.1145C190.987 89.4129 191.039 89.7321 191.024 90.0517ZM190.157 90.0517C190.142 89.739 190.036 89.4375 189.852 89.1845C189.668 88.9314 189.413 88.7379 189.12 88.6279C188.827 88.5179 188.508 88.4963 188.203 88.5656C187.898 88.635 187.62 88.7923 187.403 89.0181C187.186 89.2439 187.04 89.5283 186.983 89.8362C186.927 90.144 186.961 90.4617 187.083 90.75C187.205 91.0383 187.409 91.2845 187.669 91.4582C187.93 91.6319 188.235 91.7254 188.548 91.7272C188.767 91.7318 188.983 91.691 189.185 91.6076C189.387 91.5241 189.569 91.3997 189.72 91.2422C189.871 91.0847 189.988 90.8976 190.063 90.6927C190.138 90.4878 190.17 90.2696 190.157 90.0517Z" fill="#263238"/>
</g>
<path d="M222.844 127.564H124.976V144.319H222.844V127.564Z" fill="white"/>
<g opacity="0.4">
<path d="M130.332 133.211H130.84V137.572H133.525V138.013H130.332V133.211Z" fill="#263238"/>
<path d="M137.004 135.777V138.021H136.54V137.46C136.404 137.66 136.217 137.821 135.999 137.926C135.781 138.031 135.54 138.077 135.298 138.058C134.483 138.058 133.982 137.632 133.982 137.004C133.982 136.375 134.333 135.986 135.373 135.986H136.517V135.769C136.517 135.149 136.166 134.812 135.493 134.812C135.056 134.806 134.631 134.958 134.296 135.238L134.072 134.872C134.499 134.541 135.028 134.369 135.568 134.386C135.758 134.363 135.951 134.382 136.132 134.443C136.314 134.505 136.48 134.606 136.617 134.739C136.755 134.872 136.861 135.035 136.928 135.214C136.995 135.394 137.021 135.586 137.004 135.777ZM136.517 136.929V136.338H135.388C134.685 136.338 134.46 136.615 134.46 136.989C134.46 137.363 134.797 137.662 135.373 137.662C135.617 137.677 135.859 137.614 136.065 137.482C136.271 137.35 136.429 137.157 136.517 136.929Z" fill="#263238"/>
<path d="M137.826 137.632L138.043 137.25C138.421 137.514 138.87 137.655 139.33 137.654C140.018 137.654 140.295 137.422 140.295 137.063C140.295 136.121 137.961 136.861 137.961 135.44C137.961 134.849 138.462 134.408 139.382 134.408C139.831 134.402 140.273 134.519 140.661 134.745L140.444 135.134C140.13 134.926 139.759 134.819 139.382 134.827C138.732 134.827 138.447 135.081 138.447 135.425C138.447 136.398 140.781 135.665 140.781 137.048C140.781 137.677 140.235 138.081 139.285 138.081C138.763 138.092 138.252 137.935 137.826 137.632Z" fill="#263238"/>
<path d="M143.616 137.797C143.404 137.965 143.139 138.055 142.868 138.051C142.726 138.066 142.582 138.05 142.447 138.002C142.312 137.954 142.189 137.877 142.088 137.776C141.987 137.675 141.91 137.552 141.862 137.417C141.815 137.282 141.798 137.138 141.813 136.996V134.82H141.163V134.408H141.813V133.615H142.3V134.408H143.392V134.82H142.3V136.974C142.287 137.06 142.294 137.148 142.32 137.231C142.346 137.314 142.391 137.39 142.45 137.453C142.51 137.517 142.583 137.566 142.665 137.597C142.746 137.628 142.834 137.64 142.92 137.632C143.117 137.638 143.308 137.571 143.459 137.445L143.616 137.797Z" fill="#263238"/>
<path d="M150.348 133.211V138.013H149.929L146.847 134.116V138.013H146.339V133.211H146.758L149.847 137.108V133.211H150.348Z" fill="#263238"/>
<path d="M154.567 135.777V138.021H154.088V137.46C153.953 137.661 153.767 137.823 153.548 137.928C153.33 138.033 153.088 138.078 152.846 138.058C152.031 138.058 151.53 137.632 151.53 137.004C151.53 136.375 151.889 135.986 152.929 135.986H154.088V135.769C154.088 135.149 153.736 134.812 153.063 134.812C152.626 134.806 152.201 134.957 151.866 135.238L151.642 134.872C152.068 134.539 152.598 134.367 153.138 134.386C153.328 134.364 153.52 134.384 153.701 134.446C153.881 134.508 154.046 134.609 154.183 134.742C154.32 134.875 154.425 135.037 154.491 135.216C154.558 135.395 154.584 135.587 154.567 135.777ZM154.081 136.929V136.338H152.944C152.248 136.338 152.024 136.615 152.024 136.989C152.024 137.363 152.36 137.662 152.936 137.662C153.181 137.678 153.425 137.616 153.632 137.484C153.84 137.353 153.999 137.158 154.088 136.929H154.081Z" fill="#263238"/>
<path d="M161.845 135.919V138.013H161.359V135.971C161.359 135.223 160.97 134.819 160.319 134.819C160.15 134.812 159.982 134.841 159.825 134.905C159.669 134.969 159.529 135.066 159.414 135.19C159.299 135.314 159.213 135.462 159.161 135.622C159.11 135.783 159.094 135.953 159.115 136.121V138.013H158.628V135.971C158.628 135.223 158.239 134.819 157.581 134.819C157.412 134.812 157.244 134.841 157.088 134.905C156.932 134.969 156.791 135.066 156.676 135.19C156.562 135.314 156.475 135.462 156.424 135.622C156.372 135.783 156.356 135.953 156.377 136.121V138.013H155.891V134.408H156.332V135.066C156.473 134.846 156.67 134.666 156.902 134.545C157.134 134.425 157.394 134.367 157.656 134.378C157.921 134.356 158.187 134.416 158.417 134.55C158.647 134.684 158.83 134.885 158.943 135.126C159.09 134.885 159.3 134.688 159.55 134.557C159.8 134.425 160.081 134.363 160.364 134.378C160.568 134.358 160.775 134.385 160.968 134.456C161.161 134.527 161.335 134.641 161.478 134.79C161.62 134.938 161.727 135.117 161.791 135.312C161.854 135.508 161.873 135.715 161.845 135.919Z" fill="#263238"/>
<path d="M166.325 136.36H163.333C163.344 136.536 163.389 136.708 163.466 136.867C163.543 137.025 163.651 137.167 163.783 137.284C163.915 137.401 164.069 137.49 164.236 137.547C164.402 137.604 164.579 137.628 164.755 137.617C164.962 137.624 165.169 137.585 165.36 137.504C165.551 137.422 165.722 137.3 165.862 137.146L166.131 137.46C165.872 137.731 165.538 137.919 165.173 138.001C164.807 138.084 164.425 138.057 164.075 137.923C163.725 137.79 163.421 137.557 163.203 137.252C162.985 136.947 162.861 136.585 162.847 136.211C162.835 135.973 162.872 135.734 162.955 135.511C163.038 135.287 163.167 135.083 163.332 134.912C163.498 134.74 163.697 134.604 163.917 134.512C164.137 134.42 164.374 134.375 164.612 134.378C164.851 134.373 165.087 134.418 165.307 134.51C165.527 134.601 165.726 134.738 165.89 134.91C166.055 135.082 166.182 135.287 166.263 135.511C166.344 135.735 166.378 135.973 166.363 136.211C166.333 136.256 166.325 136.308 166.325 136.36ZM163.333 136.001H165.891C165.891 135.662 165.757 135.337 165.517 135.097C165.277 134.857 164.952 134.722 164.612 134.722C164.273 134.722 163.948 134.857 163.708 135.097C163.468 135.337 163.333 135.662 163.333 136.001Z" fill="#263238"/>
</g>
<path d="M222.844 104.675H124.976V121.43H222.844V104.675Z" fill="white"/>
<g opacity="0.4">
<path d="M130.84 110.764V112.649H133.324V113.09H130.84V115.125H130.332V110.323H133.623V110.764H130.84Z" fill="#263238"/>
<path d="M134.393 110.375C134.392 110.303 134.412 110.233 134.451 110.173C134.489 110.112 134.545 110.065 134.611 110.037C134.677 110.009 134.75 110.001 134.82 110.015C134.891 110.029 134.955 110.063 135.006 110.114C135.057 110.164 135.091 110.229 135.105 110.299C135.118 110.37 135.11 110.442 135.082 110.508C135.054 110.574 135.007 110.63 134.947 110.669C134.887 110.708 134.816 110.728 134.745 110.726C134.651 110.726 134.562 110.689 134.496 110.623C134.43 110.558 134.393 110.468 134.393 110.375ZM134.498 111.519H134.984V115.125H134.498V111.519Z" fill="#263238"/>
<path d="M138.163 111.489V111.961H138.043C137.872 111.952 137.7 111.982 137.541 112.048C137.382 112.113 137.239 112.213 137.124 112.341C137.008 112.468 136.922 112.619 136.871 112.784C136.821 112.948 136.807 113.122 136.832 113.292V115.132H136.345V111.527H136.809V112.2C136.939 111.96 137.137 111.765 137.378 111.638C137.619 111.511 137.892 111.46 138.163 111.489Z" fill="#263238"/>
<path d="M138.567 114.713L138.784 114.324C139.158 114.595 139.609 114.739 140.07 114.736C140.759 114.736 141.035 114.496 141.035 114.145C141.035 113.202 138.702 113.943 138.702 112.514C138.702 111.931 139.203 111.489 140.123 111.489C140.572 111.48 141.015 111.596 141.402 111.826L141.185 112.215C140.87 112.007 140.5 111.9 140.123 111.908C139.472 111.908 139.188 112.163 139.188 112.507C139.188 113.479 141.522 112.746 141.522 114.13C141.522 114.751 140.976 115.155 140.026 115.155C139.505 115.168 138.993 115.013 138.567 114.713Z" fill="#263238"/>
<path d="M144.364 114.908C144.149 115.071 143.886 115.158 143.616 115.155C143.474 115.171 143.33 115.156 143.195 115.109C143.06 115.062 142.938 114.986 142.836 114.885C142.735 114.785 142.658 114.662 142.61 114.528C142.562 114.393 142.546 114.249 142.561 114.107V111.931H141.911V111.519H142.561V110.704H143.048V111.497H144.14V111.908H143.048V114.055C143.035 114.141 143.042 114.23 143.068 114.313C143.094 114.396 143.139 114.473 143.198 114.537C143.258 114.601 143.331 114.65 143.412 114.682C143.494 114.714 143.581 114.727 143.668 114.721C143.864 114.723 144.055 114.657 144.207 114.534L144.364 114.908Z" fill="#263238"/>
<path d="M151.096 110.323V115.125H150.677L147.595 111.228V115.125H147.087V110.323H147.506L150.595 114.22V110.323H151.096Z" fill="#263238"/>
<path d="M155.307 112.888V115.132H154.836V114.571C154.702 114.771 154.517 114.931 154.3 115.035C154.082 115.139 153.842 115.183 153.602 115.162C152.779 115.162 152.278 114.743 152.278 114.115C152.278 113.487 152.637 113.098 153.677 113.098H154.836V112.873C154.836 112.26 154.484 111.923 153.811 111.923C153.374 111.917 152.949 112.069 152.614 112.35L152.39 111.983C152.817 111.651 153.346 111.479 153.886 111.497C154.075 111.475 154.267 111.495 154.448 111.557C154.628 111.619 154.792 111.72 154.929 111.853C155.065 111.987 155.17 112.149 155.235 112.328C155.301 112.507 155.325 112.698 155.307 112.888ZM154.821 114.04V113.449H153.684C152.988 113.449 152.764 113.726 152.764 114.092C152.764 114.459 153.101 114.773 153.677 114.773C153.923 114.79 154.168 114.728 154.376 114.596C154.585 114.465 154.746 114.27 154.836 114.04H154.821Z" fill="#263238"/>
<path d="M162.585 113.03V115.125H162.099V113.083C162.099 112.335 161.71 111.931 161.059 111.931C160.891 111.923 160.722 111.952 160.566 112.016C160.41 112.08 160.269 112.177 160.155 112.301C160.04 112.425 159.954 112.573 159.902 112.734C159.85 112.894 159.834 113.065 159.855 113.232V115.125H159.369V113.083C159.369 112.335 158.98 111.931 158.322 111.931C158.153 111.923 157.985 111.952 157.828 112.016C157.672 112.08 157.532 112.177 157.417 112.301C157.302 112.425 157.216 112.573 157.164 112.734C157.113 112.894 157.097 113.065 157.117 113.232V115.125H156.631V111.519H157.08V112.2C157.221 111.979 157.418 111.8 157.65 111.679C157.882 111.558 158.142 111.501 158.404 111.512C158.669 111.49 158.935 111.55 159.165 111.684C159.395 111.818 159.578 112.019 159.691 112.26C159.837 112.018 160.047 111.82 160.297 111.688C160.548 111.556 160.829 111.495 161.112 111.512C161.314 111.494 161.517 111.521 161.707 111.591C161.897 111.662 162.069 111.774 162.211 111.92C162.352 112.065 162.459 112.24 162.524 112.433C162.588 112.625 162.61 112.829 162.585 113.03Z" fill="#263238"/>
<path d="M167.066 113.472H164.074C164.084 113.647 164.129 113.82 164.207 113.978C164.284 114.137 164.391 114.278 164.523 114.395C164.656 114.512 164.809 114.601 164.976 114.658C165.143 114.716 165.319 114.739 165.495 114.728C165.703 114.735 165.911 114.696 166.102 114.613C166.294 114.53 166.464 114.406 166.602 114.249L166.871 114.571C166.612 114.842 166.279 115.03 165.913 115.113C165.548 115.195 165.166 115.168 164.816 115.035C164.465 114.901 164.162 114.668 163.944 114.363C163.725 114.059 163.601 113.696 163.588 113.322C163.575 113.084 163.612 112.846 163.696 112.622C163.779 112.399 163.907 112.195 164.073 112.023C164.238 111.851 164.437 111.715 164.658 111.623C164.878 111.532 165.114 111.486 165.353 111.489C165.591 111.485 165.828 111.53 166.048 111.621C166.268 111.713 166.466 111.849 166.631 112.021C166.795 112.193 166.922 112.398 167.004 112.622C167.085 112.846 167.119 113.084 167.103 113.322C167.073 113.359 167.066 113.412 167.066 113.472ZM164.074 113.105H166.632C166.632 112.766 166.497 112.44 166.257 112.201C166.018 111.961 165.692 111.826 165.353 111.826C165.014 111.826 164.688 111.961 164.448 112.201C164.209 112.44 164.074 112.766 164.074 113.105Z" fill="#263238"/>
</g>
<path d="M88.1518 247.049H87.4412C87.4412 245.995 88.3163 221.281 92.6173 217.129C97.038 212.828 102.237 217.07 102.281 217.129L101.833 217.668C101.638 217.511 97.0679 213.801 93.1035 217.668C89.012 221.565 88.1592 246.795 88.1518 247.049Z" fill="#00843D"/>
<path d="M87.7927 252.009L87.0896 251.941C87.0896 251.642 89.8722 221.932 79.1085 209.575L79.6395 209.111C90.6052 221.7 87.8227 251.709 87.7927 252.009Z" fill="#00843D"/>
<path d="M88.1368 248.837C88.0471 247.431 85.9751 214.429 94.248 206.8L94.7267 207.323C86.7007 214.698 88.8175 248.463 88.8399 248.785L88.1368 248.837Z" fill="#00843D"/>
<path d="M87.0896 248.815C87.0896 248.59 86.8353 226.375 80.9485 223.031C80.4481 222.701 79.8756 222.496 79.2794 222.434C78.6832 222.371 78.0807 222.453 77.5227 222.672C74.0744 224.101 72.2418 230.683 72.2194 230.751L71.5387 230.564C71.6135 230.279 73.4835 223.585 77.2534 222.021C77.9102 221.758 78.6208 221.656 79.3252 221.725C80.0296 221.794 80.707 222.032 81.3001 222.418C87.5309 225.986 87.7927 247.85 87.8002 248.807L87.0896 248.815Z" fill="#00843D"/>
<path d="M89.5132 248.83C89.4683 248.082 88.5632 231.297 93.328 225.066C94.5996 223.413 96.0058 222.627 97.5317 222.739C100.92 222.971 103.516 227.564 103.658 227.758L103.044 228.11C103.044 228.065 100.486 223.622 97.4794 223.443C96.2152 223.345 95.0035 224.041 93.889 225.5C89.2813 231.484 90.2088 248.62 90.2163 248.792L89.5132 248.83Z" fill="#00843D"/>
<path d="M88.5632 251.156L87.8601 251.104C87.8601 250.7 90.8521 210.622 85.9153 203.935L86.4838 203.516C91.5851 210.412 88.6904 249.495 88.5632 251.156Z" fill="#00843D"/>
<path d="M75.8846 226.008C75.8846 226.008 78.9364 227.138 78.0313 229.793C77.1263 232.448 67.4621 236.824 67.4621 236.824C67.4621 236.824 63.4154 233.122 67.133 227.1C70.8505 221.079 75.8023 224.108 75.8846 226.008Z" fill="#00843D"/>
<path opacity="0.2" d="M75.8846 226.008C75.8846 226.008 78.9364 227.138 78.0313 229.793C77.1263 232.448 67.4621 236.824 67.4621 236.824C67.4621 236.824 63.4154 233.122 67.133 227.1C70.8505 221.079 75.8023 224.108 75.8846 226.008Z" fill="black"/>
<path d="M89.1616 220.952C89.1616 220.952 85.9078 220.817 85.7208 223.615C85.5338 226.412 92.752 234.176 92.752 234.176C92.752 234.176 97.9132 232.306 96.8062 225.313C95.6991 218.319 89.9694 219.224 89.1616 220.952Z" fill="#00843D"/>
<path opacity="0.2" d="M89.1616 220.952C89.1616 220.952 85.9078 220.817 85.7208 223.615C85.5338 226.412 92.752 234.176 92.752 234.176C92.752 234.176 97.9132 232.306 96.8062 225.313C95.6991 218.319 89.9694 219.224 89.1616 220.952Z" fill="black"/>
<path d="M91.9142 207.533C91.9142 207.533 89.745 207.301 89.9171 205.984C90.0891 204.668 98.347 201.264 103.217 206.732C103.217 206.732 100.097 212.088 95.5944 212.163C91.0914 212.237 91.9142 207.533 91.9142 207.533Z" fill="#00843D"/>
<path opacity="0.2" d="M91.9142 207.533C91.9142 207.533 89.745 207.301 89.9171 205.984C90.0891 204.668 98.347 201.264 103.217 206.732C103.217 206.732 100.097 212.088 95.5944 212.163C91.0914 212.237 91.9142 207.533 91.9142 207.533Z" fill="black"/>
<path d="M87.875 204.324C87.875 204.324 89.8348 205.274 90.3883 204.062C90.9418 202.85 85.7282 195.602 78.6896 197.689C78.6896 197.689 78.5026 203.882 82.2874 206.328C86.0723 208.774 87.875 204.324 87.875 204.324Z" fill="#00843D"/>
<path opacity="0.2" d="M87.875 204.324C87.875 204.324 89.8348 205.274 90.3883 204.062C90.9418 202.85 85.7282 195.602 78.6896 197.689C78.6896 197.689 78.5026 203.882 82.2874 206.328C86.0723 208.774 87.875 204.324 87.875 204.324Z" fill="black"/>
<path d="M98.1376 224.946C98.1376 224.946 96.6416 223.734 98.2573 223.143C99.8729 222.552 107.794 222.725 107.877 230.571C107.877 230.571 98.6462 232.104 97.5093 229.112C96.3723 226.12 98.1376 224.946 98.1376 224.946Z" fill="#00843D"/>
<path opacity="0.2" d="M98.1376 224.946C98.1376 224.946 96.6416 223.734 98.2573 223.143C99.8729 222.552 107.794 222.725 107.877 230.571C107.877 230.571 98.6462 232.104 97.5093 229.112C96.3723 226.12 98.1376 224.946 98.1376 224.946Z" fill="black"/>
<path d="M79.288 207.338C79.288 207.338 80.784 206.126 79.1683 205.543C77.5526 204.959 69.6313 205.117 69.549 212.963C69.549 212.963 78.7793 214.504 79.9163 211.512C81.0532 208.52 79.288 207.338 79.288 207.338Z" fill="#00843D"/>
<path opacity="0.2" d="M79.288 207.338C79.288 207.338 80.784 206.126 79.1683 205.543C77.5526 204.959 69.6313 205.117 69.549 212.963C69.549 212.963 78.7793 214.504 79.9163 211.512C81.0532 208.52 79.288 207.338 79.288 207.338Z" fill="black"/>
<path d="M84.1948 213.659C84.1948 213.659 84.3295 212.163 83.1402 212.769C81.9509 213.374 77.8294 217.803 82.1079 222.029C82.1079 222.029 87.875 217.758 86.8353 215.536C85.7956 213.315 84.1948 213.659 84.1948 213.659Z" fill="#00843D"/>
<path opacity="0.2" d="M84.1948 213.659C84.1948 213.659 84.3295 212.163 83.1402 212.769C81.9509 213.374 77.8294 217.803 82.1079 222.029C82.1079 222.029 87.875 217.758 86.8353 215.536C85.7956 213.315 84.1948 213.659 84.1948 213.659Z" fill="black"/>
<path d="M99.484 215.753C99.484 215.753 98.5864 214.579 99.9029 214.437C101.219 214.294 107.084 215.858 105.715 221.722C105.715 221.722 98.564 221.184 98.2348 218.73C97.9057 216.277 99.484 215.753 99.484 215.753Z" fill="#00843D"/>
<path opacity="0.2" d="M99.484 215.753C99.484 215.753 98.5864 214.579 99.9029 214.437C101.219 214.294 107.084 215.858 105.715 221.722C105.715 221.722 98.564 221.184 98.2348 218.73C97.9057 216.277 99.484 215.753 99.484 215.753Z" fill="black"/>
<path d="M76.4157 270.567H99.5363L102.611 248.082H73.3414L76.4157 270.567Z" fill="#263238"/>
<path opacity="0.2" d="M76.4157 270.567H99.5363L102.611 248.082H73.3414L76.4157 270.567Z" fill="white"/>
<path d="M105.513 246.256V248.396C105.513 249.082 105.24 249.74 104.755 250.226C104.269 250.711 103.611 250.984 102.925 250.984H72.743C72.0566 250.984 71.3983 250.711 70.9129 250.226C70.4276 249.74 70.1549 249.082 70.1549 248.396V246.256H105.513Z" fill="#263238"/>
<path d="M298.168 33.1438H276.678C274.924 33.1438 273.242 33.8405 272.002 35.0805C270.762 36.3206 270.065 38.0025 270.065 39.7562V58.4561C270.064 59.3251 270.235 60.1858 270.567 60.9889C270.898 61.792 271.385 62.5218 272 63.1366C272.614 63.7514 273.343 64.2391 274.146 64.5719C274.948 64.9047 275.809 65.0759 276.678 65.0759H282.953L281.457 70.9777L287.441 65.0759H298.205C299.961 65.0759 301.645 64.3785 302.886 63.1371C304.128 61.8956 304.825 60.2118 304.825 58.4561V39.7562C304.825 38.884 304.653 38.0205 304.317 37.2153C303.982 36.4101 303.491 35.6792 302.872 35.0646C302.254 34.45 301.519 33.9639 300.712 33.6342C299.905 33.3046 299.04 33.1379 298.168 33.1438Z" fill="#00843D"/>
<path opacity="0.7" d="M298.168 33.1438H276.678C274.924 33.1438 273.242 33.8405 272.002 35.0805C270.762 36.3206 270.065 38.0025 270.065 39.7562V58.4561C270.064 59.3251 270.235 60.1858 270.567 60.9889C270.898 61.792 271.385 62.5218 272 63.1366C272.614 63.7514 273.343 64.2391 274.146 64.5719C274.948 64.9047 275.809 65.0759 276.678 65.0759H282.953L281.457 70.9777L287.441 65.0759H298.205C299.961 65.0759 301.645 64.3785 302.886 63.1371C304.128 61.8956 304.825 60.2118 304.825 58.4561V39.7562C304.825 38.884 304.653 38.0205 304.317 37.2153C303.982 36.4101 303.491 35.6792 302.872 35.0646C302.254 34.45 301.519 33.9639 300.712 33.6342C299.905 33.3046 299.04 33.1379 298.168 33.1438Z" fill="white"/>
<path d="M287.427 57.3716C292.033 57.3716 295.767 53.6375 295.767 49.0314C295.767 44.4252 292.033 40.6912 287.427 40.6912C282.82 40.6912 279.086 44.4252 279.086 49.0314C279.086 53.6375 282.82 57.3716 287.427 57.3716Z" fill="white"/>
<path d="M287.427 38.3649C285.317 38.3649 283.255 38.9904 281.501 40.1625C279.746 41.3345 278.379 43.0004 277.572 44.9495C276.765 46.8985 276.553 49.0432 276.965 51.1123C277.377 53.1814 278.392 55.082 279.884 56.5737C281.376 58.0654 283.276 59.0813 285.346 59.4929C287.415 59.9044 289.559 59.6932 291.508 58.8859C293.457 58.0786 295.123 56.7114 296.295 54.9573C297.467 53.2032 298.093 51.141 298.093 49.0314C298.094 47.6303 297.819 46.2429 297.283 44.9483C296.747 43.6537 295.962 42.4775 294.971 41.4868C293.98 40.4961 292.804 39.7105 291.51 39.1748C290.215 38.6391 288.828 38.3639 287.427 38.3649ZM293.478 45.8449L287.053 53.4146C286.961 53.524 286.847 53.6117 286.717 53.6712C286.588 53.7307 286.447 53.7606 286.305 53.7587C286.162 53.7596 286.022 53.7292 285.892 53.6697C285.763 53.6103 285.648 53.5232 285.557 53.4146L281.375 48.4853C281.287 48.3878 281.219 48.2736 281.176 48.1494C281.133 48.0251 281.115 47.8934 281.123 47.7622C281.132 47.6309 281.167 47.5028 281.227 47.3854C281.286 47.2679 281.368 47.1637 281.469 47.0788C281.569 46.9939 281.686 46.9301 281.811 46.8912C281.937 46.8523 282.069 46.8391 282.2 46.8524C282.331 46.8656 282.458 46.9052 282.573 46.9685C282.688 47.0319 282.79 47.1178 282.871 47.2212L286.305 51.2679L291.982 44.5807C292.152 44.3926 292.389 44.278 292.643 44.2611C292.896 44.2443 293.146 44.3265 293.34 44.4904C293.534 44.6543 293.657 44.8872 293.683 45.1398C293.708 45.3925 293.635 45.6453 293.478 45.8449Z" fill="#00843D"/>
<path d="M294.443 148.523C294.443 148.523 281.42 146.877 261.688 152.263C261.688 152.263 258.516 117.002 258.89 112.155C259.264 107.308 289.356 108.729 289.356 108.729C289.356 108.729 290.104 122.844 292.064 131.356C294.024 139.868 295.46 146.885 294.443 148.523Z" fill="#00843D"/>
<path opacity="0.2" d="M294.443 148.523C294.443 148.523 281.42 146.877 261.688 152.263C261.688 152.263 258.516 117.002 258.89 112.155C259.264 107.308 289.356 108.729 289.356 108.729C289.356 108.729 290.104 122.844 292.064 131.356C294.024 139.868 295.46 146.885 294.443 148.523Z" fill="black"/>
<path d="M252.173 265.256L257.484 266.759L258.748 258.494L259.429 254.073L254.118 252.57L253.213 258.494L252.173 265.256Z" fill="#E4897B"/>
<path d="M282.707 265.69L288.182 266.415L288.234 258.494L288.272 253.572L282.789 252.854L282.751 258.494L282.707 265.69Z" fill="#E4897B"/>
<path opacity="0.2" d="M282.789 252.854L282.751 258.494H288.234L288.272 253.572L282.789 252.854Z" fill="black"/>
<path opacity="0.2" d="M253.213 258.494H258.748L259.429 254.073L254.118 252.57L253.213 258.494Z" fill="black"/>
<path d="M228.596 115.05L223.323 113.494L224.288 119.515C224.288 119.515 229.075 120.615 229.524 118.124L228.596 115.05Z" fill="#E4897B"/>
<path d="M218.057 114.893L220.645 119.785L224.288 119.515L223.323 113.494L218.057 114.893Z" fill="#E4897B"/>
<path d="M235.874 116.591L227.212 114.653L226.427 118.857L234.289 120.772L235.874 116.591Z" fill="#E4897B"/>
<path d="M262.077 112.791L261.568 113.397C260.476 114.676 257.828 117.765 255.068 120.428C252.824 122.597 250.58 124.49 249.084 124.871C244.843 125.963 229.427 121.423 229.427 121.423L231.02 115.17C231.02 115.17 245.381 117.077 246.496 117.077C247.341 117.077 256.078 104.421 258.195 103.381L262.077 112.791Z" fill="#00843D"/>
<path opacity="0.2" d="M261.568 113.397C260.476 114.676 257.828 117.765 255.068 120.428C255.622 116.045 257.23 112.021 259.347 109.477C259.544 109.232 259.77 109.011 260.02 108.819L261.568 113.397Z" fill="black"/>
<path d="M252.241 264.426L258.269 264.268C258.378 264.265 258.485 264.299 258.572 264.364C258.659 264.429 258.721 264.522 258.748 264.627L260.02 269.482C260.05 269.598 260.054 269.72 260.031 269.838C260.008 269.956 259.959 270.067 259.887 270.163C259.815 270.259 259.722 270.338 259.616 270.394C259.509 270.449 259.392 270.48 259.272 270.484C257.095 270.484 253.946 270.484 251.216 270.537C248.014 270.626 245.98 270.469 242.24 270.537C239.996 270.597 239.248 268.338 240.205 268.106C244.491 267.044 247.296 267.253 250.947 264.859C251.332 264.603 251.778 264.453 252.241 264.426Z" fill="#263238"/>
<path d="M251.717 265.203C250.834 265.398 249.264 265.66 248.635 265.144C248.544 265.068 248.471 264.971 248.425 264.862C248.378 264.753 248.358 264.634 248.366 264.515C248.366 264.444 248.384 264.374 248.42 264.312C248.455 264.251 248.506 264.199 248.568 264.164C249.234 263.767 251.485 264.837 251.747 264.957C251.77 264.969 251.789 264.987 251.802 265.01C251.815 265.032 251.822 265.058 251.822 265.084C251.82 265.113 251.809 265.14 251.79 265.162C251.771 265.184 251.745 265.198 251.717 265.203ZM248.725 264.373H248.68C248.655 264.388 248.634 264.408 248.62 264.433C248.606 264.458 248.598 264.486 248.598 264.515C248.592 264.593 248.604 264.67 248.634 264.742C248.664 264.813 248.71 264.877 248.77 264.927C249.121 265.218 250.034 265.248 251.246 265.009C250.371 264.642 249.151 264.216 248.74 264.373H248.725Z" fill="#00843D"/>
<path d="M251.717 265.203H251.627C250.947 264.919 249.585 263.767 249.66 263.146C249.66 262.997 249.78 262.81 250.139 262.765C250.271 262.748 250.404 262.757 250.533 262.791C250.661 262.826 250.781 262.886 250.887 262.967C251.635 263.528 251.807 265.001 251.822 265.061C251.824 265.084 251.82 265.107 251.811 265.128C251.802 265.149 251.787 265.167 251.769 265.181L251.717 265.203ZM250.041 263.057C249.929 263.094 249.922 263.154 249.922 263.176C249.877 263.55 250.804 264.463 251.5 264.852C251.42 264.224 251.142 263.637 250.707 263.176C250.633 263.114 250.547 263.069 250.454 263.043C250.361 263.017 250.264 263.012 250.169 263.027C250.125 263.031 250.082 263.041 250.041 263.057Z" fill="#00843D"/>
<path d="M282.924 264.425L288.952 264.268C289.062 264.265 289.17 264.298 289.258 264.363C289.346 264.428 289.41 264.521 289.439 264.627L290.703 269.482C290.735 269.598 290.74 269.72 290.717 269.839C290.695 269.957 290.646 270.069 290.573 270.166C290.501 270.262 290.408 270.341 290.301 270.397C290.194 270.452 290.075 270.482 289.955 270.484C287.778 270.484 284.629 270.484 281.891 270.537C278.697 270.626 276.655 270.469 272.915 270.537C270.671 270.596 269.923 268.337 270.881 268.106C275.167 267.043 277.964 267.253 281.615 264.859C282.004 264.6 282.456 264.45 282.924 264.425Z" fill="#263238"/>
<path d="M282.407 265.203C281.525 265.398 279.946 265.66 279.326 265.144C279.234 265.068 279.162 264.971 279.115 264.862C279.068 264.753 279.048 264.634 279.056 264.515C279.056 264.444 279.075 264.374 279.11 264.312C279.146 264.251 279.197 264.199 279.258 264.164C279.917 263.767 282.176 264.837 282.43 264.957C282.455 264.966 282.476 264.984 282.489 265.007C282.503 265.03 282.508 265.057 282.505 265.084C282.503 265.111 282.492 265.137 282.475 265.159C282.457 265.18 282.434 265.196 282.407 265.203ZM279.415 264.373H279.371C279.346 264.387 279.326 264.408 279.312 264.433C279.299 264.459 279.293 264.487 279.296 264.515C279.288 264.593 279.3 264.671 279.33 264.743C279.36 264.814 279.407 264.878 279.468 264.927C279.819 265.218 280.724 265.248 281.944 265.009C281.054 264.642 279.834 264.216 279.423 264.373H279.415Z" fill="#00843D"/>
<path d="M282.407 265.203H282.31C281.637 264.919 280.268 263.767 280.35 263.146C280.35 262.997 280.463 262.81 280.822 262.765C280.954 262.747 281.088 262.755 281.216 262.79C281.345 262.825 281.465 262.885 281.57 262.967C282.093 263.55 282.42 264.282 282.505 265.061C282.508 265.084 282.506 265.108 282.496 265.129C282.487 265.15 282.472 265.168 282.452 265.181L282.407 265.203ZM280.724 263.057C280.62 263.094 280.612 263.154 280.612 263.176C280.56 263.55 281.495 264.463 282.191 264.852C282.105 264.225 281.828 263.64 281.398 263.176C281.324 263.115 281.237 263.07 281.144 263.044C281.052 263.018 280.954 263.012 280.859 263.027L280.724 263.057Z" fill="#00843D"/>
<path d="M294.001 145.307C296.904 157.88 291.922 256.803 291.922 256.803H282.303L278.189 174.366L263.042 256.803L252.757 256.055C259.489 192.191 265.42 154.066 265.42 154.066V149.248L294.001 145.307Z" fill="#263238"/>
<path opacity="0.4" d="M252.757 256.055L263.042 256.803L274.965 191.907L278.189 174.366L282.303 256.803H291.922C291.922 256.803 296.904 157.88 294.001 145.307L265.405 149.248V154.066C265.405 154.066 259.481 192.191 252.757 256.055Z" fill="white"/>
<path d="M288.818 98.736C288.523 104.748 288.675 110.773 289.274 116.763C289.678 120.952 290.231 124.908 290.822 128.476C292.206 136.847 293.777 143.122 294.001 145.314L265.405 149.256C254.978 120.084 258.905 103.134 258.905 103.134C261.043 102.251 263.234 101.502 265.465 100.89C265.936 100.763 266.415 100.643 266.909 100.531C270.925 99.7408 274.983 99.1814 279.064 98.8556C279.812 98.7883 280.627 98.736 281.39 98.6986C285.295 98.5041 288.818 98.736 288.818 98.736Z" fill="#263238"/>
<path d="M273.514 85.6086C273.723 89.6104 274.149 97.1204 277.478 99.0278C277.478 99.0278 275.406 102.97 270.926 103.374C267.537 103.673 267.762 100.329 267.762 100.329C269.721 98.8707 269.258 96.3948 267.762 93.5973L273.514 85.6086Z" fill="#E4897B"/>
<path opacity="0.2" d="M271.165 88.8699L267.784 93.5972C268.14 94.2438 268.44 94.9194 268.682 95.6168C270.252 94.9885 272.055 92.6248 271.793 90.9119C271.711 90.1984 271.498 89.5061 271.165 88.8699Z" fill="black"/>
<path d="M258.928 77.5526C258.277 79.632 258.636 83.8956 261.531 82.5118C264.425 81.128 260.05 73.9846 258.928 77.5526Z" fill="#263238"/>
<path d="M273.888 80.3651C274.209 85.6984 274.636 88.8026 272.309 91.8245C268.771 96.3648 261.92 94.6744 260.005 89.5281C258.284 84.8905 258.053 76.9468 262.997 74.254C264.093 73.6577 265.322 73.3492 266.57 73.3573C267.817 73.3655 269.043 73.69 270.131 74.3006C271.219 74.9111 272.134 75.7877 272.791 76.8484C273.448 77.909 273.826 79.119 273.888 80.3651Z" fill="#E4897B"/>
<path d="M270.148 77.4629V71.4789C270.148 71.4789 276.491 71.0077 276.207 74.254C279.722 75.9969 278.062 81.4647 273.342 84.1426C270.754 82.0706 271.053 77.0889 271.053 77.0889C270.776 77.2311 270.462 77.3507 270.148 77.4629Z" fill="#263238"/>
<path d="M276.468 84.5239C276.346 85.1764 276.094 85.7977 275.728 86.3514C275.362 86.9051 274.889 87.3799 274.336 87.7478C272.84 88.7277 271.546 87.5234 271.494 85.8404C271.449 84.3444 272.16 81.9807 273.88 81.6815C274.256 81.6229 274.641 81.6584 275.001 81.785C275.36 81.9116 275.682 82.1252 275.939 82.4068C276.195 82.6884 276.378 83.0292 276.47 83.3987C276.562 83.7681 276.562 84.1548 276.468 84.5239Z" fill="#E4897B"/>
<path d="M266.011 82.7437C266.064 83.1776 265.877 83.5516 265.592 83.5815C265.308 83.6114 265.039 83.2898 264.987 82.8335C264.934 82.3772 265.121 82.0257 265.398 81.9957C265.675 81.9658 265.959 82.28 266.011 82.7437Z" fill="#263238"/>
<path d="M261.119 83.2899C261.172 83.7237 260.985 84.0977 260.7 84.1276C260.416 84.1575 260.147 83.8359 260.095 83.3796C260.042 82.9233 260.229 82.5718 260.513 82.5419C260.798 82.5119 261.052 82.856 261.119 83.2899Z" fill="#263238"/>
<path d="M262.698 83.3271C262.32 84.6647 261.758 85.9434 261.03 87.127C261.352 87.2928 261.706 87.3885 262.068 87.4078C262.431 87.4272 262.793 87.3697 263.131 87.2392L262.698 83.3271Z" fill="#DE5753"/>
<path d="M265.652 88.6306C265.468 88.6776 265.28 88.7126 265.091 88.7353C265.057 88.7353 265.025 88.7219 265.001 88.698C264.977 88.6742 264.964 88.6419 264.964 88.6081C264.964 88.5744 264.977 88.5421 265.001 88.5182C265.025 88.4944 265.057 88.481 265.091 88.481C265.628 88.4322 266.146 88.2579 266.604 87.972C267.061 87.6862 267.445 87.2968 267.724 86.8354C267.731 86.8202 267.74 86.8066 267.752 86.7953C267.764 86.784 267.778 86.7753 267.793 86.7697C267.809 86.764 267.825 86.7617 267.842 86.7627C267.858 86.7637 267.874 86.7681 267.889 86.7755C267.904 86.7827 267.918 86.7929 267.929 86.8055C267.941 86.8181 267.949 86.8329 267.955 86.8489C267.961 86.865 267.963 86.8819 267.962 86.8989C267.961 86.9158 267.956 86.9324 267.949 86.9476C267.704 87.3724 267.373 87.7416 266.978 88.0314C266.583 88.3212 266.131 88.5252 265.652 88.6306Z" fill="#263238"/>
<path d="M267.328 81.001C267.283 81.0115 267.235 81.0101 267.191 80.997C267.146 80.9839 267.106 80.9595 267.073 80.9262C266.857 80.6888 266.588 80.5051 266.288 80.3895C265.988 80.274 265.665 80.2298 265.346 80.2604C265.313 80.268 265.278 80.2688 265.245 80.2626C265.212 80.2564 265.18 80.2434 265.152 80.2245C265.124 80.2055 265.1 80.181 265.082 80.1525C265.064 80.1239 265.052 80.0919 265.046 80.0585C265.04 80.0256 265.04 79.9917 265.047 79.9588C265.053 79.9259 265.066 79.8946 265.085 79.8668C265.104 79.839 265.128 79.8152 265.156 79.7967C265.184 79.7783 265.215 79.7655 265.248 79.7593C265.652 79.7112 266.062 79.7601 266.443 79.9019C266.824 80.0437 267.166 80.2743 267.44 80.5746C267.464 80.5977 267.484 80.6255 267.497 80.6564C267.51 80.6872 267.517 80.7205 267.517 80.7541C267.517 80.7877 267.51 80.821 267.497 80.8519C267.484 80.8827 267.464 80.9106 267.44 80.9336C267.408 80.9641 267.37 80.9871 267.328 81.001Z" fill="#263238"/>
<path d="M258.808 81.8462C258.76 81.8646 258.707 81.8646 258.658 81.8462C258.595 81.8241 258.543 81.7779 258.514 81.7177C258.484 81.6575 258.48 81.5881 258.501 81.5246C258.625 81.1396 258.84 80.7902 259.128 80.5062C259.415 80.2223 259.768 80.0122 260.154 79.8939C260.22 79.8771 260.289 79.8869 260.348 79.9213C260.406 79.9556 260.448 80.0117 260.465 80.0772C260.482 80.1426 260.472 80.2121 260.437 80.2704C260.403 80.3286 260.347 80.3707 260.282 80.3876C259.976 80.4819 259.698 80.6499 259.472 80.8768C259.246 81.1038 259.08 81.3827 258.988 81.6891C258.973 81.7283 258.949 81.7633 258.918 81.7908C258.887 81.8183 258.849 81.8373 258.808 81.8462Z" fill="#263238"/>
<path d="M272.96 79.677C272.96 79.677 269.22 78.3081 267.515 76.1389C267.515 76.1389 264.119 77.029 263.423 78.3829C263.106 78.1111 262.9 77.7313 262.846 77.3169C262.793 76.9025 262.894 76.4829 263.131 76.1389C263.131 76.1389 260.588 76.6775 260.087 78.3829C259.674 78.1862 259.334 77.862 259.119 77.4581C258.904 77.0542 258.823 76.5918 258.89 76.1389C258.89 76.1389 257.761 76.5653 257.394 78.3829C257.394 78.3829 254.589 72.5336 263.857 70.858C263.156 70.6201 262.421 70.4963 261.68 70.4915C261.68 70.4915 268.15 67.881 273.274 70.2671C278.398 72.6533 277.508 77.2759 272.96 79.677Z" fill="#263238"/>
<path d="M296.208 150.348L287.232 151.545C287.232 151.545 283.529 125.671 281.899 117.316V99.484L286.589 98.2498L290.224 99.484C291.221 103.072 291.988 106.719 292.52 110.405C292.962 113.202 293.358 116.194 293.71 119.224C294.196 123.353 294.6 127.556 294.944 131.491C295.482 137.841 295.841 143.459 296.036 146.892C296.148 149.046 296.208 150.348 296.208 150.348Z" fill="#00843D"/>
<path d="M281.906 117.301C281.906 117.301 282.654 104.713 286.596 98.2199C286.596 98.2199 286.499 96.3648 285.714 96.0656C284.928 95.7664 281.906 97.5616 281.906 97.5616C281.906 97.5616 280.029 96.2751 279.617 96.8735C279.206 97.4719 278.204 101.451 281.906 117.301Z" fill="#00843D"/>
<path opacity="0.7" d="M281.906 117.301C281.906 117.301 282.654 104.713 286.596 98.2199C286.596 98.2199 286.499 96.3648 285.714 96.0656C284.928 95.7664 281.906 97.5616 281.906 97.5616C281.906 97.5616 280.029 96.2751 279.617 96.8735C279.206 97.4719 278.204 101.451 281.906 117.301Z" fill="white"/>
<path d="M261.501 153.796L262.526 154.544C262.526 154.544 261.03 146.204 261.643 125.11C261.643 124.093 261.71 123.113 261.748 122.178C262.496 104.331 265.278 101.085 265.488 100.89L262.9 101.773L258.21 103.389C256.796 118.61 261.501 153.796 261.501 153.796Z" fill="#00843D"/>
<path d="M261.905 119.104C261.905 119.104 259.317 106.867 260.087 102.648C260.857 98.4293 263.618 100.307 263.618 100.307C263.618 100.307 266.153 98.2573 266.909 100.516C266.909 100.516 263.423 102.97 261.905 119.104Z" fill="#00843D"/>
<path opacity="0.7" d="M261.905 119.104C261.905 119.104 259.317 106.867 260.087 102.648C260.857 98.4293 263.618 100.307 263.618 100.307C263.618 100.307 266.153 98.2573 266.909 100.516C266.909 100.516 263.423 102.97 261.905 119.104Z" fill="white"/>
<path opacity="0.2" d="M293.695 119.194C289.865 117.047 289.356 111.445 289.356 111.445C289.588 111.355 291.009 110.869 292.505 110.375C292.947 113.172 293.343 116.164 293.695 119.194Z" fill="black"/>
<path opacity="0.2" d="M274.965 191.907L278.189 174.366L277.568 165.084C277.568 165.084 273.147 181.181 274.965 191.907Z" fill="black"/>
<path opacity="0.2" d="M296.021 146.862C293.612 146.698 291.533 146.541 291.533 146.541L291.077 136.749C291.827 136.28 292.729 136.114 293.597 136.286C294.189 134.721 294.637 133.107 294.936 131.461C295.46 137.812 295.827 143.437 296.021 146.862Z" fill="black"/>
<path d="M296.844 131.453L292.154 138.986L295.864 141.118L300.27 134.333L296.844 131.453Z" fill="#E4897B"/>
<path d="M290.022 99.3643C293.179 99.7083 306.598 118.124 307.189 123.674C307.78 129.224 299.305 138.806 299.305 138.806L293.65 135.478C293.65 135.478 299.394 126.644 299.694 124.258C299.993 121.872 289.184 112.23 289.184 112.23C288.367 110.009 287.917 107.669 287.853 105.303C287.703 101.249 290.022 99.3643 290.022 99.3643Z" fill="#00843D"/>
<path d="M291.069 136.757C291.069 136.757 295.894 137.789 297.839 140.826C297.839 140.826 295.819 147.147 294.375 147.835C292.932 148.523 289.356 148.523 289.356 148.523C289.356 148.523 289.124 141.492 291.069 136.757Z" fill="#00843D"/>
</svg>
