<svg width="22" height="22" viewBox="0 0 22 22" fill="none" xmlns="http://www.w3.org/2000/svg">
<ellipse cx="10.2459" cy="6.67149" rx="4.22788" ry="4.37986" stroke="#807A7A" stroke-width="1.5" stroke-linecap="round" stroke-linejoin="round"/>
<path fill-rule="evenodd" clip-rule="evenodd" d="M3.53957 17.1428C3.53843 16.8349 3.6049 16.5308 3.73395 16.2535C4.13892 15.4144 5.28093 14.9697 6.22856 14.7683C6.91199 14.6172 7.60486 14.5163 8.302 14.4663C9.59272 14.3488 10.8909 14.3488 12.1816 14.4663C12.8787 14.5169 13.5715 14.6178 14.2551 14.7683C15.2027 14.9697 16.3447 15.3724 16.7497 16.2535C17.0092 16.8188 17.0092 17.4752 16.7497 18.0406C16.3447 18.9216 15.2027 19.3244 14.2551 19.5174C13.5724 19.6747 12.8793 19.7785 12.1816 19.8278C11.1311 19.9201 10.0756 19.9369 9.02285 19.8782C8.77987 19.8782 8.54499 19.8782 8.302 19.8278C7.60692 19.7791 6.91645 19.6753 6.23666 19.5174C5.28093 19.3244 4.14702 18.9216 3.73395 18.0406C3.60556 17.7601 3.53915 17.4534 3.53957 17.1428Z" stroke="#807A7A" stroke-width="1.5" stroke-linecap="round" stroke-linejoin="round"/>
</svg>
