<svg width="27" height="27" viewBox="0 0 27 27" fill="none" xmlns="http://www.w3.org/2000/svg">
<g clip-path="url(#clip0_368_1193)">
<path d="M16.1543 20.6543V17.8945C16.1543 17.3086 15.9844 17.0156 15.6445 17.0156C15.4453 17.0156 15.252 17.1094 15.0645 17.2969V21.2344C15.252 21.4219 15.4453 21.5156 15.6445 21.5156C15.9844 21.5156 16.1543 21.2285 16.1543 20.6543ZM19.3887 18.5098H20.5488V17.9121C20.5488 17.3145 20.3555 17.0156 19.9688 17.0156C19.582 17.0156 19.3887 17.3145 19.3887 17.9121V18.5098ZM9.35156 13.834V15.0645H7.94531V22.5H6.64453V15.0645H5.27344V13.834H9.35156ZM12.8848 16.0488V22.5H11.707V21.7969C11.25 22.3242 10.8047 22.5879 10.3711 22.5879C9.98438 22.5879 9.73828 22.4238 9.63281 22.0957C9.5625 21.8965 9.52734 21.5801 9.52734 21.1465V16.0488H10.6875V20.7949C10.6875 21.0762 10.6934 21.2285 10.7051 21.252C10.7168 21.4277 10.8047 21.5156 10.9688 21.5156C11.2031 21.5156 11.4492 21.334 11.707 20.9707V16.0488H12.8848ZM17.3145 18V20.5664C17.3145 21.1758 17.2734 21.6035 17.1914 21.8496C17.0508 22.3418 16.7402 22.5879 16.2598 22.5879C15.8496 22.5879 15.4512 22.3477 15.0645 21.8672V22.5H13.8867V13.834H15.0645V16.6641C15.4395 16.1953 15.8379 15.9609 16.2598 15.9609C16.7402 15.9609 17.0508 16.207 17.1914 16.6992C17.2734 16.9453 17.3145 17.3789 17.3145 18ZM21.7266 20.2676V20.4258C21.7266 20.7656 21.7148 21.0176 21.6914 21.1816C21.6562 21.4395 21.5684 21.6738 21.4277 21.8848C21.1113 22.3535 20.6426 22.5879 20.0215 22.5879C19.4121 22.5879 18.9375 22.3652 18.5977 21.9199C18.3516 21.6035 18.2285 21.0996 18.2285 20.4082V18.1406C18.2285 17.4492 18.3457 16.9453 18.5801 16.6289C18.9199 16.1836 19.3887 15.9609 19.9863 15.9609C20.584 15.9609 21.041 16.1836 21.3574 16.6289C21.6035 16.9688 21.7266 17.4727 21.7266 18.1406V19.4766H19.3887V20.6191C19.3887 21.2168 19.5879 21.5156 19.9863 21.5156C20.2676 21.5156 20.4434 21.3633 20.5137 21.0586C20.5137 21.0469 20.5166 21.0059 20.5225 20.9355C20.5283 20.8652 20.5312 20.7686 20.5312 20.6455V20.2676H21.7266ZM13.7988 5.7832V8.52539C13.7988 9.12305 13.6113 9.42188 13.2363 9.42188C12.8613 9.42188 12.6738 9.12305 12.6738 8.52539V5.7832C12.6738 5.17383 12.8613 4.86914 13.2363 4.86914C13.6113 4.86914 13.7988 5.17383 13.7988 5.7832ZM23.168 18.3164C23.168 16.2422 23.0566 14.7188 22.834 13.7461C22.7168 13.2305 22.4648 12.7998 22.0781 12.4541C21.6914 12.1084 21.2461 11.9062 20.7422 11.8477C19.1484 11.6719 16.7344 11.584 13.5 11.584C10.2773 11.584 7.86914 11.6719 6.27539 11.8477C5.75977 11.9062 5.31152 12.1084 4.93066 12.4541C4.5498 12.7998 4.30078 13.2305 4.18359 13.7461C3.94922 14.7656 3.83203 16.2891 3.83203 18.3164C3.83203 20.3789 3.94922 21.9023 4.18359 22.8867C4.30078 23.3906 4.5498 23.8184 4.93066 24.1699C5.31152 24.5215 5.75391 24.7266 6.25781 24.7852C7.86328 24.9609 10.2773 25.0488 13.5 25.0488C16.7227 25.0488 19.1367 24.9609 20.7422 24.7852C21.2461 24.7266 21.6885 24.5215 22.0693 24.1699C22.4502 23.8184 22.6992 23.3906 22.8164 22.8867C23.0508 21.9023 23.168 20.3789 23.168 18.3164ZM9.89648 6.87305L11.4785 1.66992H10.1602L9.26367 5.09766L8.33203 1.66992H6.96094C7.04297 1.93945 7.17773 2.34375 7.36523 2.88281L7.78711 4.0957C8.19727 5.30273 8.4668 6.22852 8.5957 6.87305V10.4062H9.89648V6.87305ZM14.9766 8.29688V6.01172C14.9766 5.33203 14.8535 4.82227 14.6074 4.48242C14.2676 4.03711 13.8105 3.81445 13.2363 3.81445C12.6387 3.81445 12.1816 4.03711 11.8652 4.48242C11.6191 4.82227 11.4961 5.33203 11.4961 6.01172V8.29688C11.4961 8.97656 11.6191 9.48633 11.8652 9.82617C12.1816 10.2715 12.6387 10.4941 13.2363 10.4941C13.8105 10.4941 14.2676 10.2715 14.6074 9.82617C14.8535 9.50977 14.9766 9 14.9766 8.29688ZM18.1582 10.4062H19.3359V3.90234H18.1582V8.87695C17.9004 9.24023 17.6543 9.42188 17.4199 9.42188C17.2441 9.42188 17.1504 9.32812 17.1387 9.14062C17.127 9.11719 17.1211 8.96484 17.1211 8.68359V3.90234H15.9434V9.05273C15.9434 9.48633 15.9785 9.80859 16.0488 10.0195C16.1777 10.3359 16.4297 10.4941 16.8047 10.4941C17.2266 10.4941 17.6777 10.2305 18.1582 9.70312V10.4062ZM27 5.0625V21.9375C27 23.332 26.5049 24.5244 25.5146 25.5146C24.5244 26.5049 23.332 27 21.9375 27H5.0625C3.66797 27 2.47559 26.5049 1.48535 25.5146C0.495117 24.5244 0 23.332 0 21.9375V5.0625C0 3.66797 0.495117 2.47559 1.48535 1.48535C2.47559 0.495117 3.66797 0 5.0625 0H21.9375C23.332 0 24.5244 0.495117 25.5146 1.48535C26.5049 2.47559 27 3.66797 27 5.0625Z" fill="#00843D"/>
</g>
<defs>
<clipPath id="clip0_368_1193">
<rect width="27" height="27" fill="white"/>
</clipPath>
</defs>
</svg>
