<svg width="27" height="31" viewBox="0 0 27 31" fill="none" xmlns="http://www.w3.org/2000/svg">
<path d="M3.85714 1.9375C1.72969 1.9375 0 3.6752 0 5.8125V25.1875C0 27.3248 1.72969 29.0625 3.85714 29.0625H23.1429C25.2703 29.0625 27 27.3248 27 25.1875V5.8125C27 3.6752 25.2703 1.9375 23.1429 1.9375H3.85714ZM21.7627 7.02344L15.5069 14.2043L22.8656 23.9766H17.104L12.596 18.049L7.43103 23.9766H4.5683L11.258 16.2932L4.20067 7.02344H10.1069L14.1871 12.4424L18.9 7.02344H21.7627ZM19.4846 22.257L9.24509 8.65215H7.53951L17.8935 22.257H19.4786H19.4846Z" fill="#00843D"/>
</svg>
