<svg width="229" height="241" viewBox="0 0 229 241" fill="none" xmlns="http://www.w3.org/2000/svg">
<path d="M144.815 91.7585L114.773 131.964L129.473 140.725L144.815 91.7585Z" fill="#00B6AA"/>
<path d="M181.234 161.775L174.991 240.841H134.81L143.837 204.533L130.519 204.436L115.278 241H77.708L115.572 159.872" fill="#171766"/>
<path d="M144.815 91.7585L114.773 164.188C114.773 164.188 165.676 182.347 194.205 167.261L184.456 93.1072L144.815 91.7585Z" fill="#171766"/>
<path d="M177.265 74.2064L159.597 76.3836L158.581 87.8715C164.221 86.7347 169.871 85.6413 175.55 84.6394L177.265 74.2064Z" fill="#171766"/>
<path d="M178.378 92.7028L177.01 106.98L163.86 120.707L161.717 122.947L161.134 121.478L155.113 106.334L155.585 91.0073H172.694L178.378 92.7028Z" fill="white"/>
<path d="M158.586 87.8715L158.085 93.536L165.589 101.378L173.999 94.1621L175.56 84.6443C169.871 85.6413 164.221 86.7347 158.586 87.8715Z" fill="#F2583E"/>
<path d="M187.655 63.6064C189.518 52.2908 181.854 41.6079 170.539 39.7455C159.223 37.8831 148.54 45.5464 146.678 56.862C144.815 68.1776 152.479 78.8605 163.794 80.7229C175.11 82.5854 185.793 74.922 187.655 63.6064Z" fill="#F2583E"/>
<path d="M176.204 71.1548C176.621 68.5896 174.88 66.1715 172.315 65.7538C169.75 65.3362 167.332 67.0771 166.914 69.6423C166.497 72.2076 168.237 74.6257 170.803 75.0434C173.368 75.461 175.786 73.7201 176.204 71.1548Z" fill="#F6EF97"/>
<path d="M161.509 40.4506C159.467 40.6047 157.42 40.7588 155.373 40.913C154.824 40.9563 154.26 40.9997 153.764 41.2357C153.268 41.4717 152.844 41.9534 152.839 42.5025C152.835 43.0998 153.292 43.5911 153.769 43.9475C155.19 45.0168 157.054 45.4889 158.812 45.2191C158.133 46.1487 156.664 46.7171 156.784 47.8635C156.876 48.7401 157.892 49.1785 158.764 49.3085C160.281 49.5349 161.851 49.3711 163.287 48.8317C163.051 49.7276 162.829 50.7294 163.282 51.5338C163.73 52.3382 164.713 52.685 165.633 52.8006C169.134 53.239 172.443 51.3075 175.478 49.506C175.863 49.2748 176.384 49.0532 176.726 49.3422C176.923 49.506 176.976 49.7757 177.015 50.031C177.564 53.6339 176.726 57.2946 176.75 60.9361C176.759 62.7472 177.068 64.722 178.402 65.9455C179.399 66.8607 180.805 67.1882 182.154 67.3134C183.527 67.4387 184.977 67.376 186.176 66.6969C186.961 66.2537 187.587 65.5698 188.122 64.8424C189.88 62.4437 190.742 59.3032 190 56.4228C189.755 55.4739 189.331 54.5443 188.632 53.8555" fill="#00B6AA"/>
<path d="M185.713 76.3834C190.02 76.3834 193.512 72.892 193.512 68.5851C193.512 64.2783 190.02 60.7869 185.713 60.7869C181.406 60.7869 177.915 64.2783 177.915 68.5851C177.915 72.892 181.406 76.3834 185.713 76.3834Z" fill="#F2583E"/>
<path d="M192.558 40.34L191.363 45.1663L189.35 53.2729L161.461 40.34L165.368 35.8508L170.521 29.9214C170.521 29.9214 184.567 30.9425 192.558 40.34Z" fill="#171766"/>
<path d="M191.363 45.1663L189.35 53.2728L161.461 40.3399L165.368 35.8507L191.363 45.1663Z" fill="#00B6AA"/>
<path d="M154.8 34.8585L199.778 55.9847C199.778 55.9847 195.882 64.0093 170.521 50.1998C153.119 40.7253 154.8 34.8585 154.8 34.8585Z" fill="#171766"/>
<path d="M149.487 51.6785C149.487 51.6785 147.03 57.078 150.811 58.3015C154.593 59.5249 157.656 54.7949 157.656 54.7949C157.656 54.7949 153.09 58.3111 150.72 56.3073C148.967 54.8286 149.487 51.6785 149.487 51.6785Z" fill="#171766"/>
<path d="M164.033 57.9692C164.033 57.9692 161.577 63.3688 165.358 64.5922C169.139 65.8157 172.203 61.0857 172.203 61.0857C172.203 61.0857 167.636 64.6019 165.267 62.5981C163.508 61.1194 164.033 57.9692 164.033 57.9692Z" fill="#171766"/>
<path d="M161.914 52.4011L152.839 60.6811L157.377 64.0961L162.834 53.2729L161.914 52.4011Z" fill="#FFB459"/>
<path d="M181.764 71.721L181.234 66.2685L189.779 63.3737V64.7946L182.684 67.0536L184.129 72.2461L181.764 71.721Z" fill="#171766"/>
<path d="M165.589 101.373L160.845 105.611L154.241 90.2364L158.586 87.8713L165.589 101.373Z" fill="#00B6AA"/>
<path d="M168.73 106.979L165.589 101.373L174.837 89.0129L179.668 92.7893L168.73 106.979Z" fill="#00B6AA"/>
<path d="M166.745 101.373L163.86 120.707L161.717 122.947L161.134 121.478L164.785 101.373H166.745Z" fill="#00B6AA"/>
<path d="M153.345 73.9271C153.345 73.9271 143.399 75.0494 138.924 79.2207C137.19 80.8439 136.058 87.2791 134.791 96.7006C134.786 96.715 134.786 96.7295 134.781 96.7439C132.783 111.579 130.422 133.785 124.767 156.255C115.505 193.03 92.5051 206.19 92.5051 206.19C76.6147 205.424 64.8812 201.724 56.2737 196.32C33.2594 181.875 32.6091 155.257 34.6948 140.041C31.6121 133.674 32.6814 124.43 32.9463 124.358C46.0141 120.934 59.3467 127.513 69.3511 134.883C72.8528 137.465 75.95 140.143 78.4788 142.517C82.4911 146.289 85.097 149.304 85.6798 149.983V149.988C85.7617 150.084 85.8002 150.133 85.8002 150.133L77.9826 158.046L81.6482 166.288C81.6482 166.288 126.872 79.6542 134.796 73.4021C147.011 68.5854 150.995 69.6402 150.995 69.6402L153.345 73.9271Z" fill="#F6EF97"/>
<path d="M121.655 104.445C123.581 102.519 123.581 99.3958 121.655 97.4696C119.728 95.5434 116.605 95.5434 114.679 97.4696C112.753 99.3958 112.753 102.519 114.679 104.445C116.605 106.371 119.728 106.371 121.655 104.445Z" fill="#FFB459"/>
<path d="M128.35 93.901C130.277 91.9748 130.277 88.8519 128.35 86.9257C126.424 84.9995 123.301 84.9995 121.375 86.9257C119.449 88.8519 119.449 91.9748 121.375 93.901C123.301 95.8272 126.424 95.8272 128.35 93.901Z" fill="#FFB459"/>
<path d="M116.387 113.141C117.01 110.489 115.365 107.834 112.713 107.211C110.062 106.588 107.407 108.233 106.784 110.885C106.161 113.537 107.806 116.191 110.457 116.814C113.109 117.437 115.764 115.793 116.387 113.141Z" fill="#FFB459"/>
<path d="M109.814 124.222C110.443 121.572 108.804 118.914 106.153 118.285C103.503 117.656 100.844 119.295 100.216 121.946C99.5868 124.596 101.226 127.254 103.876 127.883C106.527 128.512 109.185 126.873 109.814 124.222Z" fill="#FFB459"/>
<path d="M103.241 135.283C103.87 132.632 102.231 129.974 99.5801 129.345C96.9296 128.716 94.2712 130.355 93.6425 133.006C93.0138 135.656 94.6528 138.315 97.3033 138.943C99.9538 139.572 102.612 137.933 103.241 135.283Z" fill="#FFB459"/>
<path d="M96.6602 146.322C97.2832 143.67 95.6385 141.015 92.9866 140.392C90.3348 139.769 87.68 141.414 87.057 144.066C86.434 146.717 88.0787 149.372 90.7306 149.995C93.3824 150.618 96.0372 148.973 96.6602 146.322Z" fill="#FFB459"/>
<path d="M126.208 81.0366L139.083 86.4217L141.877 83.7291L128.168 78.0261" fill="#F2583E"/>
<path d="M134.781 96.7441C132.782 111.58 130.422 133.785 124.767 156.255C115.505 193.03 92.505 206.19 92.505 206.19C92.505 206.19 79.2879 202.1 74.0762 196.32L91.137 199.09C91.137 199.09 129.859 126.617 134.781 96.7441Z" fill="#FFB459"/>
<path d="M69.3511 134.883C64.7126 140.591 60.7244 146.814 57.8343 153.567C53.9135 162.728 53.138 174.057 53.7883 183.999C54.0628 188.19 54.9106 192.346 56.2785 196.32C33.2642 181.875 32.614 155.258 34.6996 140.042C31.6121 133.674 32.6862 124.431 32.9463 124.358C46.0189 120.934 59.3468 127.513 69.3511 134.883Z" fill="#FFB459"/>
<path d="M85.6797 149.983L77.9826 158.046C40.7493 160.021 36.7466 131.839 36.7466 131.839L60.1992 133.871L78.4739 142.517C82.491 146.289 85.0969 149.304 85.6797 149.983Z" fill="#FFB459"/>
<path d="M85.8002 150.133C46.5921 161.987 32.9463 124.358 32.9463 124.358C58.8699 117.562 85.8002 150.133 85.8002 150.133Z" fill="#171766"/>
<path d="M149.405 65.6904L152.184 76.4751L154.694 75.5069L153.018 65.6904H149.405Z" fill="#171766"/>
<path d="M155.518 66.49L151.404 68.171L152.753 72.482L157.343 73.3298L155.518 66.49Z" fill="#171766"/>
<path d="M48.9185 84.3216C34.3094 105.568 51.4328 127.629 63.6481 146.39C61.89 146.212 60.1367 145.889 58.605 145.316C52.7767 143.153 24.1654 118.824 28.6931 96.0214C30.326 87.7704 34.3816 80.2611 37.3198 72.3809C40.258 64.4959 41.5586 55.1081 36.9201 48.0902C35.239 45.5421 32.9029 43.5143 30.6439 41.4672C24.7482 36.1351 19.0693 30.3165 15.5579 23.1877C12.0465 16.0541 10.9579 7.35996 14.3489 0.168585L29.0399 0H57.8295C54.3133 6.90237 54.1302 15.2546 59.0336 23.1492C64.332 30.8559 70.5938 37.1177 69.6304 46.7511C68.1854 61.683 57.107 71.7981 48.9185 84.3216Z" fill="#00B6AA"/>
<path d="M133.211 32.301C119.724 37.1177 100.458 38.081 99.0126 55.4212C98.0492 66.9814 99.0126 80.4682 87.9341 87.2116C79.264 92.0283 69.1489 94.9184 64.8138 104.07C59.2264 117.335 61.2398 133.635 68.4504 146.558C66.9765 146.592 65.3099 146.558 63.6482 146.39C51.433 127.629 34.3095 105.568 48.9186 84.3216C57.1071 71.7981 68.1855 61.683 69.6305 46.7511C70.5939 37.1177 64.3321 30.8559 59.0337 23.1492C54.1303 15.2546 54.3134 6.90237 57.8296 0H151.428C152.199 13.4098 145.966 27.6624 133.211 32.301Z" fill="#7BD6AA"/>
<path d="M208.906 0C206.589 7.2877 203.906 14.5176 199.658 20.8612C195.005 27.8021 188.228 33.6593 180.097 35.6052C175.107 36.7998 169.895 36.4819 164.78 36.8865C159.665 37.2911 154.289 38.5964 150.734 42.2957C146.737 46.4477 145.812 52.7769 142.103 57.1842C134.343 66.4226 118.535 63.4363 109.412 71.3309C99.7109 79.7216 101.122 97.2882 90.0582 103.786C85.7183 106.334 66.8175 110.679 66.384 123.274C66.0275 133.688 73.5175 146.183 73.5175 146.183C73.5175 146.183 71.35 146.491 68.4503 146.558C61.2397 133.635 59.2263 117.335 64.8137 104.07C69.1488 94.9184 79.2639 92.0283 87.934 87.2116C99.0125 80.4682 98.0491 66.9814 99.0125 55.4212C100.457 38.081 119.724 37.1177 133.211 32.301C145.966 27.6624 152.199 13.4098 151.428 0H208.906Z" fill="#00B6AA"/>
<path d="M211.695 158.143C209.869 168.528 201.536 178.368 189.254 185.025C174.688 192.919 154.569 196.335 133.178 190.868C129.257 189.866 125.293 188.565 121.314 186.937L137.272 143.119C140.277 143.765 143.447 144.391 146.65 144.935C161.273 147.426 176.692 148.249 181.234 142.026C190.564 129.252 181.234 105.616 181.234 105.616C181.234 105.616 176.937 100.352 184.456 93.1073C184.456 93.1073 208.988 120.567 211.941 146.727C212.379 150.59 212.35 154.429 211.695 158.143Z" fill="#00B6AA"/>
<path d="M128.761 140.273L126.208 123.424L123.101 122.061L120.818 132.869L106.594 121.617L104.215 125.028L111.589 135.311L100.082 131.68L97.3989 137.253L110.847 145.2L92.9482 144.94L91.8596 149.314L130.682 164.872L138.461 149.314L128.761 140.273Z" fill="#F1573D"/>
<path d="M92.9482 148.736L93.5022 145.2C93.5022 145.2 96.7968 146.192 96.4693 147.979C96.1466 149.766 92.9482 148.736 92.9482 148.736Z" fill="#171766"/>
<path d="M99.3303 136.395L100.91 132.932C100.91 132.932 104.918 135.369 104.426 137.045C103.945 138.722 99.3303 136.395 99.3303 136.395Z" fill="#171766"/>
<path d="M105.51 125.191L107.133 123.082C107.133 123.082 111.141 126.164 109.73 127.547C108.328 128.924 105.51 125.191 105.51 125.191Z" fill="#171766"/>
<path d="M123.698 123.674L126.294 124.488C126.294 124.488 126.945 129.305 125.538 128.982C124.132 128.655 123.698 123.674 123.698 123.674Z" fill="#171766"/>
<path d="M148.702 137.932L146.65 144.935L133.177 190.868L130.764 199.09L119.334 192.366L121.314 186.937L137.272 143.119L140.118 135.311L148.702 137.932Z" fill="white"/>
<path d="M211.695 158.143C209.869 168.528 201.536 178.368 189.254 185.025C186.609 179.168 186.108 172.338 188.026 166.191C190.872 157.049 198.892 149.882 208.135 147.382C209.354 147.05 210.65 146.814 211.941 146.727C212.379 150.59 212.35 154.429 211.695 158.143Z" fill="#FFB459"/>
<path d="M105.014 114.205L93.5068 106.719L108.785 79.1436L119.334 81.0365L105.014 114.205Z" fill="white"/>
<path d="M108.092 84.3506L124.999 82.2264L127.156 84.8467L117.379 89.9814L132.07 100.612L129.435 103.829L117.537 99.5233L124.156 109.614L119.527 113.709L108.222 102.924L113.337 120.081L109.421 122.316L97.4758 106.806" fill="#F1573D"/>
<path d="M109.681 121.112L112.933 119.614C112.933 119.614 111.083 116.714 109.455 117.513C107.822 118.313 109.681 121.112 109.681 121.112Z" fill="#171766"/>
<path d="M119.825 111.618L122.73 109.157C122.73 109.157 119.296 105.963 117.817 106.888C116.333 107.813 119.825 111.618 119.825 111.618Z" fill="#171766"/>
<path d="M128.929 102.62L130.519 100.482C130.519 100.482 126.463 97.4665 125.514 99.1957C124.57 100.93 128.929 102.62 128.929 102.62Z" fill="#171766"/>
<path d="M125.442 84.7069L123.953 82.4286C123.953 82.4286 119.141 83.1126 119.835 84.3794C120.533 85.6462 125.442 84.7069 125.442 84.7069Z" fill="#171766"/>
<path d="M5.69337 186.744L21.7764 195.125L33.2595 171.259L28.1393 211.637L16.6562 204.484L0 233.134L5.69337 186.744Z" fill="#FFB459"/>
<path d="M45.8214 195.381L52.1603 221.025L37.3633 224.58L48.1142 237.532V226.357L64.1828 225.341L45.8214 195.381Z" fill="#F6EF97"/>
<path d="M84.8081 131.964L104.142 118.125L99.8459 112.157L84.8081 131.964Z" fill="#00B6AA"/>
<path d="M76.167 127.547L86.2966 95.4916L79.3557 96.7439L76.167 127.547Z" fill="#F1573D"/>
<path d="M28.1392 122.061L5.1731 108.709L11.9839 98.9596L28.1392 122.061Z" fill="#00B6AA"/>
<path d="M21.8583 96.744L6.65674 63.3737L19.8786 56.3317L21.8583 96.744Z" fill="#F6EF97"/>
<path d="M23.0143 127.547L2.36499 136.795L5.9968 143.076L23.0143 127.547Z" fill="#F1573D"/>
<path d="M203.184 70.3964L212.234 82.838L226.93 66.49L216.377 98.9595L202.428 82.7272L186.87 90.4147L203.184 70.3964Z" fill="#FFB459"/>
<path d="M196.021 98.9596C196.021 98.9596 220.524 122.489 220.9 120.5C221.276 118.511 226.93 112.157 226.93 112.157L196.021 98.9596Z" fill="#171766"/>
<path d="M206.898 65.6904L228.814 41.5972L221.651 35.8508L206.898 65.6904Z" fill="#171766"/>
<path d="M185.507 193.536L217.856 229.738L228.814 215.038L185.507 193.536Z" fill="#FFB459"/>
<path d="M194.206 191.291L224.291 196.32V187.144L194.206 191.291Z" fill="#F6EF97"/>
<path d="M182.828 204.484L185.714 233.134L202.052 229.738L182.828 204.484Z" fill="#F6EF97"/>
<path d="M18.3998 166.447C18.3998 168.133 17.0319 169.501 15.346 169.501C13.6602 169.501 12.2922 168.133 12.2922 166.447C12.2922 164.761 13.6602 163.393 15.346 163.393C17.0319 163.398 18.3998 164.761 18.3998 166.447Z" fill="#7BD6AA"/>
<path d="M213.776 178.633C215.814 178.633 217.465 176.981 217.465 174.944C217.465 172.906 215.814 171.254 213.776 171.254C211.738 171.254 210.086 172.906 210.086 174.944C210.086 176.981 211.738 178.633 213.776 178.633Z" fill="#171766"/>
<path d="M213.776 132.484C216.276 132.484 218.303 130.457 218.303 127.956C218.303 125.456 216.276 123.429 213.776 123.429C211.275 123.429 209.248 125.456 209.248 127.956C209.248 130.457 211.275 132.484 213.776 132.484Z" fill="#7BD6AA"/>
<path d="M205.65 32.2479C207.637 32.2479 209.248 30.637 209.248 28.6499C209.248 26.6627 207.637 25.0518 205.65 25.0518C203.663 25.0518 202.052 26.6627 202.052 28.6499C202.052 30.637 203.663 32.2479 205.65 32.2479Z" fill="#FFB459"/>
<path d="M16.5194 41.0072C17.1539 38.3199 15.4899 35.627 12.8026 34.9925C10.1153 34.3579 7.42241 36.022 6.78786 38.7093C6.15332 41.3966 7.81739 44.0895 10.5047 44.724C13.192 45.3586 15.8849 43.6945 16.5194 41.0072Z" fill="#FFB459"/>
<path d="M111.632 74.2064C113.763 74.2064 115.491 72.479 115.491 70.3482C115.491 68.2174 113.763 66.49 111.632 66.49C109.502 66.49 107.774 68.2174 107.774 70.3482C107.774 72.479 109.502 74.2064 111.632 74.2064Z" fill="#FFB459"/>
<path d="M24.5747 148.188C25.7294 145.456 24.4507 142.305 21.7186 141.151C18.9865 139.996 15.8356 141.275 14.6809 144.007C13.5262 146.739 14.8049 149.89 17.537 151.044C20.2691 152.199 23.42 150.92 24.5747 148.188Z" fill="#171766"/>
<path d="M74.534 217.996C76.2898 217.996 77.7131 216.572 77.7131 214.817C77.7131 213.061 76.2898 211.637 74.534 211.637C72.7783 211.637 71.355 213.061 71.355 214.817C71.355 216.572 72.7783 217.996 74.534 217.996Z" fill="#FFB459"/>
<path d="M28.7751 225.216C30.8607 225.216 32.5514 223.525 32.5514 221.439C32.5514 219.354 30.8607 217.663 28.7751 217.663C26.6895 217.663 24.9988 219.354 24.9988 221.439C24.9988 223.525 26.6895 225.216 28.7751 225.216Z" fill="#7BD6AA"/>
</svg>
