<svg width="31" height="31" viewBox="0 0 31 31" fill="none" xmlns="http://www.w3.org/2000/svg">
<path fill-rule="evenodd" clip-rule="evenodd" d="M7.50623 1.74219C5.97738 1.74219 4.51111 2.34937 3.42984 3.43023C2.34857 4.51108 1.74082 5.97712 1.74023 7.50597V22.882C1.74023 24.4112 2.34772 25.8778 3.42906 26.9592C4.51039 28.0405 5.977 28.648 7.50623 28.648H22.8822C24.4111 28.6474 25.8771 28.0396 26.958 26.9584C28.0388 25.8771 28.646 24.4108 28.646 22.882V7.50597C28.6454 5.9775 28.038 4.5118 26.9572 3.43101C25.8764 2.35022 24.4107 1.74277 22.8822 1.74219H7.50623ZM24.5407 7.51483C24.5407 7.95528 24.3658 8.37769 24.0543 8.68913C23.7429 9.00058 23.3205 9.17554 22.88 9.17554C22.4396 9.17554 22.0172 9.00058 21.7057 8.68913C21.3943 8.37769 21.2193 7.95528 21.2193 7.51483C21.2193 7.07438 21.3943 6.65197 21.7057 6.34053C22.0172 6.02908 22.4396 5.85412 22.88 5.85412C23.3205 5.85412 23.7429 6.02908 24.0543 6.34053C24.3658 6.65197 24.5407 7.07438 24.5407 7.51483ZM15.1964 10.5883C13.9749 10.5883 12.8035 11.0735 11.9397 11.9372C11.076 12.801 10.5907 13.9725 10.5907 15.194C10.5907 16.4155 11.076 17.587 11.9397 18.4507C12.8035 19.3144 13.9749 19.7997 15.1964 19.7997C16.418 19.7997 17.5894 19.3144 18.4532 18.4507C19.3169 17.587 19.8022 16.4155 19.8022 15.194C19.8022 13.9725 19.3169 12.801 18.4532 11.9372C17.5894 11.0735 16.418 10.5883 15.1964 10.5883ZM8.37423 15.194C8.37423 13.3852 9.09277 11.6505 10.3718 10.3715C11.6508 9.09251 13.3855 8.37397 15.1942 8.37397C17.003 8.37397 18.7377 9.09251 20.0167 10.3715C21.2957 11.6505 22.0142 13.3852 22.0142 15.194C22.0142 17.0027 21.2957 18.7374 20.0167 20.0164C18.7377 21.2954 17.003 22.014 15.1942 22.014C13.3855 22.014 11.6508 21.2954 10.3718 20.0164C9.09277 18.7374 8.37423 17.0027 8.37423 15.194Z" fill="#E30512"/>
</svg>
